<svg width="24" height="24" viewBox="0 0 24 24" fill="none" xmlns="http://www.w3.org/2000/svg">
<path d="M19.0612 9.06089C19.0612 5.16563 15.8956 2 12.0003 2C8.10509 2 4.93945 5.16563 4.93945 9.06089C4.93945 14.3566 12.0003 22.0059 12.0003 22.0059C12.0003 22.0059 19.0612 14.3566 19.0612 9.06089ZM9.64671 9.06089C9.64671 7.76639 10.7058 6.70726 12.0003 6.70726C13.2948 6.70726 14.354 7.76639 14.354 9.06089C14.354 9.68511 14.106 10.2838 13.6646 10.7252C13.2232 11.1666 12.6246 11.4145 12.0003 11.4145C11.3761 11.4145 10.7775 11.1666 10.3361 10.7252C9.89469 10.2838 9.64671 9.68511 9.64671 9.06089Z" fill="#FFBB29"/>
</svg>
