<svg width="149" height="40" viewBox="0 0 149 40" fill="none" xmlns="http://www.w3.org/2000/svg">
<g clip-path="url(#clip0_161_1467)">
<path fill-rule="evenodd" clip-rule="evenodd" d="M39.3767 16.7184V27.2353C39.3767 34.0218 33.8352 39.5499 27.0323 39.5499H12.5253C5.67724 39.5499 0.135742 34.0218 0.135742 27.2353V16.7184H8.78588V27.2353C8.78588 30.4263 11.3989 33.033 14.5977 33.033H24.9148C28.1135 33.033 30.7266 30.4263 30.7266 27.2353V16.7184H39.3767ZM16.9404 13.4375H22.6171C23.5181 13.4375 24.284 14.1566 24.284 15.1004V24.8532C24.284 25.7521 23.5632 26.5162 22.6171 26.5162H16.9404C16.0394 26.5162 15.2735 25.797 15.2735 24.8532V15.1004C15.2735 14.2015 16.0394 13.4375 16.9404 13.4375Z" fill="#616161"/>
<path fill-rule="evenodd" clip-rule="evenodd" d="M30.7718 0.988567C34.9617 2.33688 38.2055 5.8425 39.1517 10.2021H30.7718V0.988567ZM12.5255 0.404297H24.2842V6.92115H14.5979C12.3002 6.92115 10.3179 8.26947 9.37176 10.2021H0.40625C1.57762 4.62902 6.57848 0.404297 12.5255 0.404297Z" fill="#616161"/>
<path d="M124.527 19.9115V13.4845H128.356V19.9564C128.356 23.0126 128.852 23.3272 131.24 23.3272H133.673V26.4733H130.789C126.554 26.4733 124.527 24.9452 124.527 19.9115ZM115.561 21.3497C115.742 23.1474 116.417 23.3272 118.4 23.3272H122.274V26.4733H117.949C113.759 26.4733 111.687 24.9452 111.687 19.8665C111.687 14.7879 113.714 13.4396 117.949 13.4396H122.274V16.5857H118.4C116.553 16.5857 115.832 16.7205 115.606 18.2486H120.923V21.3048H115.561V21.3497ZM97.4502 13.4845V26.4733H103.352C107.542 26.4733 109.614 24.9452 109.614 19.8665C109.614 14.7879 107.587 13.4396 103.352 13.4396H97.4502V13.4845ZM105.83 19.9564C105.83 23.0126 105.334 23.3272 102.947 23.3272H101.099V16.6306H102.947C105.289 16.6306 105.83 16.8553 105.83 19.9564ZM141.737 13.1699C145.927 13.1699 148.225 14.5632 148.225 19.8216C148.225 25.1699 145.972 26.743 141.737 26.743C137.502 26.743 135.249 25.1699 135.249 19.8216C135.249 14.5632 137.502 13.1699 141.737 13.1699ZM141.737 23.4621C144.125 23.4621 144.395 23.1475 144.395 19.8216C144.395 16.7205 144.125 16.4508 141.737 16.4508C139.304 16.4508 139.079 16.7205 139.079 19.8216C139.034 23.1475 139.304 23.4621 141.737 23.4621Z" fill="#616161"/>
<path d="M75.0133 21.3496C75.1935 23.1473 75.8693 23.3271 77.8516 23.3271H81.7261V26.4732H77.401C73.2111 26.4732 71.1387 24.9451 71.1387 19.8664C71.1387 14.7878 73.1661 13.4395 77.401 13.4395H81.7261V16.5855H77.8516C76.0044 16.5855 75.2836 16.7204 75.0583 18.2484H80.3745V21.3046H75.0133V21.3496ZM58.569 26.4732C54.3791 26.4732 52.3066 24.9451 52.3066 19.8664V13.4844H56.1361V19.9563C56.1361 22.9675 56.6317 23.3271 58.9294 23.3271V13.4844H62.4886V23.3271C64.8313 23.3271 65.3269 22.9675 65.3269 19.9563V13.4844H69.1564V19.9114C69.1564 24.99 67.129 26.5181 62.894 26.5181C61.4974 26.4732 60.0557 26.4732 58.569 26.4732ZM87.5379 16.4956H90.6015C90.9169 16.4956 91.1422 16.6754 91.1422 17.4395C91.1422 18.2484 90.9169 18.3383 90.6015 18.3383H87.5379V16.4956ZM87.5379 23.417V21.2147H90.6015C91.052 21.2147 91.3674 21.4395 91.3674 22.3383C91.3674 23.1923 91.0971 23.417 90.6916 23.417H87.5379ZM92.1784 19.6866C94.5211 19.5069 95.0167 18.4732 95.0167 16.6305C95.0167 14.4282 94.3409 13.4844 91.7278 13.4844H83.9788V26.4732H91.7278C93.8453 26.4732 95.242 25.6642 95.242 23.0125C95.1969 20.9001 94.6563 19.8215 92.1784 19.6866Z" fill="#616161"/>
<path d="M101.235 31.3263C100.874 31.1915 100.243 31.1016 99.6127 31.1016C98.0809 31.1016 97.4502 31.5959 97.4502 32.8094C97.4502 33.7083 97.9007 34.0229 98.8919 34.1578C99.7929 34.2477 99.883 34.3376 99.883 34.5623C99.883 34.787 99.7929 34.8769 99.1171 34.8769C98.5765 34.8769 98.0809 34.787 97.7656 34.742L97.4952 35.8657C97.9007 36.0005 98.4864 36.0904 99.1171 36.0904C100.694 36.0904 101.28 35.7308 101.28 34.4724C101.28 33.5735 100.784 33.1241 99.7028 32.9892C98.8919 32.8993 98.8018 32.8544 98.8018 32.5847C98.8018 32.4049 98.8919 32.2701 99.5677 32.2701C100.153 32.2701 100.604 32.36 100.919 32.4049L101.235 31.3263ZM106.461 36.0005V32.36H108.038V31.1915H103.577V32.36H105.154V36.0005H106.461ZM113.399 31.2364H114.705V34.787C114.705 35.8207 113.849 36.1353 112.633 36.1353C111.372 36.1353 110.561 35.8657 110.561 34.787V31.2364H111.867V34.4724C111.867 34.742 112.047 34.8769 112.633 34.8769C113.219 34.8769 113.399 34.742 113.399 34.4724V31.2364ZM117.499 31.2364V36.0005H119.661C121.193 36.0005 121.959 35.4612 121.959 33.5735C121.959 31.7308 121.193 31.2364 119.661 31.2364H117.499ZM120.562 33.6184C120.562 34.742 120.382 34.8769 119.481 34.8769H118.805V32.36H119.481C120.382 32.36 120.562 32.4499 120.562 33.6184ZM125.879 31.2364V36.0005H124.572V31.2364H125.879ZM131.285 31.1016C132.817 31.1016 133.673 31.5959 133.673 33.5286C133.673 35.5061 132.862 36.0904 131.285 36.0904C129.753 36.0904 128.897 35.5061 128.897 33.5286C128.897 31.5959 129.708 31.1016 131.285 31.1016ZM131.285 34.8769C132.186 34.8769 132.276 34.742 132.276 33.5286C132.276 32.4049 132.186 32.2701 131.285 32.2701C130.384 32.2701 130.294 32.36 130.294 33.5286C130.294 34.787 130.384 34.8769 131.285 34.8769Z" fill="#616161"/>
</g>
<defs>
<clipPath id="clip0_161_1467">
<rect width="148.224" height="40" fill="white"/>
</clipPath>
</defs>
</svg>
