<svg width="35" height="55" viewBox="0 0 35 55" fill="none" xmlns="http://www.w3.org/2000/svg">
<g clip-path="url(#clip0_150_707)">
<path d="M27.4131 33.8201H6.97361L6.23337 36.2642H11.6831L12.7168 39.6335H21.6699L22.7101 36.2642H28.1534L27.4131 33.8201ZM10.3111 20.1001C8.74527 22.259 9.22515 25.2783 11.3831 26.8453L16.2777 30.3997C16.821 30.7912 16.9413 31.5504 16.5457 32.0907L17.2795 32.6204L19.864 29.0596C20.464 28.2391 20.7881 27.2492 20.7893 26.2326C20.7871 25.974 20.7657 25.716 20.7255 25.4605C20.53 24.1976 19.8415 23.0639 18.8111 22.3081L13.9229 18.7601C13.6509 18.578 13.4662 18.2916 13.4124 17.9688C13.406 17.9049 13.406 17.8411 13.4124 17.7773C13.4141 17.5232 13.4943 17.2757 13.6421 17.069L12.9083 16.533L10.3111 20.1001ZM13.2593 5.81863C12.3924 7.00873 11.9254 8.44314 11.9256 9.91547C11.9236 10.2894 11.9536 10.6634 12.0149 11.0322C12.3002 12.8685 13.3091 14.5141 14.8163 15.6013L20.968 20.0682C21.7738 20.6503 22.3137 21.5302 22.4676 22.5123C22.5003 22.7106 22.5174 22.9112 22.5186 23.1122C22.5155 23.8976 22.263 24.6619 21.7975 25.2946L22.391 25.7221L27.2345 19.0281C29.496 15.8929 28.7966 11.5197 25.671 9.24543L18.2495 3.85317C17.7854 3.51707 17.4752 3.0092 17.388 2.44288C17.2934 1.87714 17.4315 1.29717 17.7709 0.834779L17.1838 0.407227L13.2593 5.81863ZM0.700717 41.6756H6.30356C7.45404 41.5992 8.58782 41.9825 9.45596 42.7413C10.0011 43.2813 10.299 44.0226 10.2792 44.7897V44.828C10.3101 45.9301 9.69018 46.9473 8.69658 47.4252C10.0877 47.9612 10.9492 48.7717 10.9492 50.3925C10.9492 52.6005 9.16242 53.7044 6.43757 53.7044H0.694336L0.700717 41.6756ZM5.75477 46.5509C6.92256 46.5509 7.66918 46.168 7.66918 45.2747C7.66918 44.477 7.03104 43.9984 5.92706 43.9984H3.28517V46.5509H5.75477ZM6.45672 51.4072C7.63089 51.4072 8.33284 50.9924 8.33284 50.1309V50.0926C8.33284 49.2885 7.73299 48.8163 6.37376 48.8163H3.28517V51.471L6.45672 51.4072ZM12.1361 41.6756H17.739C18.8895 41.5992 20.0232 41.9825 20.8914 42.7413C21.4342 43.2824 21.7297 44.0235 21.7082 44.7897V44.828C21.7391 45.9301 21.1192 46.9473 20.1256 47.4252C21.5231 47.9612 22.3846 48.7717 22.3846 50.3925C22.3846 52.6005 20.5915 53.7044 17.8666 53.7044H12.1361V41.6756ZM17.171 46.5509C18.3388 46.5509 19.0855 46.168 19.0855 45.2747C19.0855 44.477 18.4473 43.9984 17.3497 43.9984H14.6887V46.5509H17.171ZM17.873 51.4072C19.0472 51.4072 19.7491 50.9924 19.7491 50.1309V50.0926C19.7491 49.2885 19.1493 48.8163 17.79 48.8163H14.6887V51.471L17.873 51.4072ZM23.5077 41.6756H29.1106C30.2611 41.5992 31.3948 41.9825 32.263 42.7413C32.8081 43.2813 33.106 44.0226 33.0862 44.7897V44.828C33.1171 45.9301 32.4972 46.9473 31.5036 47.4252C32.9011 47.9612 33.7626 48.7717 33.7626 50.3925C33.7626 52.6005 31.9694 53.7044 29.2446 53.7044H23.5014L23.5077 41.6756ZM28.5426 46.5509C29.7104 46.5509 30.4571 46.168 30.4571 45.2747C30.4571 44.477 29.8189 43.9984 28.7213 43.9984H26.0922V46.5509H28.5426ZM29.2446 51.4072C30.4188 51.4072 31.1271 50.9924 31.1271 50.1309V50.0926C31.1271 49.2885 30.5209 48.8163 29.1616 48.8163H26.0922V51.471L29.2446 51.4072Z" fill="#005F86"/>
</g>
<defs>
<clipPath id="clip0_150_707">
<rect width="34.2" height="54.72" fill="white"/>
</clipPath>
</defs>
</svg>
