<svg width="24" height="24" viewBox="0 0 24 24" fill="none" xmlns="http://www.w3.org/2000/svg">
<path d="M3.43332 17.3248L3.07932 19.7998C3.05745 19.9534 3.07162 20.11 3.12072 20.2572C3.16982 20.4044 3.25251 20.5381 3.36223 20.6479C3.47195 20.7576 3.6057 20.8403 3.7529 20.8894C3.9001 20.9385 4.0567 20.9526 4.21032 20.9308L6.68532 20.5768C7.06032 20.5238 8.00032 17.9998 8.00032 17.9998C8.00032 17.9998 8.47232 18.4048 8.66532 18.4658C9.07732 18.5958 9.47832 18.1918 9.61332 17.7818L10.0003 16.0098C10.0003 16.0098 10.5773 16.3018 10.7863 16.3448C11.0523 16.3998 11.3103 16.2358 11.4933 16.0518C11.6029 15.9419 11.6854 15.808 11.7343 15.6608L12.0003 14.0098C12.0003 14.0098 12.6753 14.1968 12.9063 14.2238C13.1693 14.2538 13.4253 14.1198 13.6133 13.9308L14.7513 12.7938C15.7146 13.1061 16.7454 13.1465 17.7302 12.9104C18.7149 12.6743 19.6154 12.171 20.3323 11.4558C21.362 10.4234 21.9403 9.02484 21.9403 7.56676C21.9403 6.10868 21.362 4.71011 20.3323 3.67776C19.3 2.64807 17.9014 2.06982 16.4433 2.06982C14.9852 2.06982 13.5867 2.64807 12.5543 3.67776C11.8391 4.39468 11.3357 5.29514 11.0997 6.2799C10.8636 7.26466 10.9039 8.29548 11.2163 9.25876L3.71532 16.7588C3.56258 16.912 3.46363 17.1106 3.43332 17.3248ZM18.5043 5.50576C19.0496 6.05305 19.3558 6.79416 19.3558 7.56676C19.3558 8.33935 19.0496 9.08046 18.5043 9.62776L14.3823 5.50576C14.9296 4.96044 15.6707 4.65425 16.4433 4.65425C17.2159 4.65425 17.957 4.96044 18.5043 5.50576Z" fill="#FFBB29"/>
</svg>
