<svg width="72" height="36" viewBox="0 0 72 36" fill="none" xmlns="http://www.w3.org/2000/svg">
<g clip-path="url(#clip0_150_1259)">
<path d="M3.08429 30.9284C2.79224 30.9284 2.72814 30.9996 2.72814 31.2774V34.6039C2.72814 34.8959 2.79937 34.9672 3.09141 34.9672H7.27266V36H2.25089C1.23941 36 0.690938 35.6438 0.690938 34.3973V31.5338C0.690938 30.2731 1.23941 29.9098 2.25089 29.9098H7.12307V30.9284H3.08429ZM14.1037 29.9098V32.3031H10.8413V29.9098H8.78275V36H10.8413V33.279H14.1037V36H16.1551V29.9098H14.1037ZM25.0376 30.9284L26.911 35.3233C27.0534 35.6367 27.3027 36 27.837 36H29.7531C30.2873 36 30.4654 35.651 30.6078 35.3304C30.7503 35.017 32.9015 29.9098 32.9015 29.9098H31.3415L29.3542 34.8959C29.3186 34.9814 29.2758 34.9956 29.1405 34.9885C29.0051 34.9885 28.9624 34.9814 28.9268 34.8959L26.9537 29.9098H19.2822C18.2707 29.9098 17.7222 30.2659 17.7222 31.5338V34.4044C17.7222 35.651 18.2707 36.0071 19.2822 36.0071H24.4606V34.9743H20.1156C19.8235 34.9743 19.7523 34.903 19.7523 34.611V33.3645H24.0617V32.3601H19.7523V31.2774C19.7523 30.9996 19.8164 30.9284 20.1084 30.9284H25.0376ZM44.911 30.9141C44.6118 30.9141 44.5548 30.9854 44.5548 31.2632V34.6181C44.5548 34.903 44.6189 34.9814 44.9038 34.9814H47.5251C47.8101 34.9814 47.8742 34.903 47.8742 34.6181V31.2632C47.8742 30.9854 47.8101 30.9141 47.518 30.9141H44.911ZM49.9256 31.5196V34.3973C49.9256 35.6438 49.3771 35.9929 48.3657 36H44.0847C43.0732 36 42.5247 35.651 42.5247 34.4044V31.5267C42.5247 30.2659 43.0803 29.9098 44.0847 29.9098H48.3657C49.37 29.9098 49.9256 30.2588 49.9256 31.5196ZM53.4088 34.9743V29.9098H51.3645V36H57.0914V34.9743H53.4088ZM59.1001 29.9098C58.0958 29.9098 57.5402 30.2659 57.5402 31.5338V34.3973C57.5402 35.6438 58.0886 36 59.1001 36H64.2786V34.9743H59.9335C59.6415 34.9743 59.5702 34.903 59.5702 34.611V33.3645H63.8655V32.353H59.5702V31.2774C59.5702 30.9996 59.6415 30.9284 59.9335 30.9284L66.7076 30.9213V36H68.7519V30.9213H71.0954V29.9098H59.1001ZM39.1199 34.0198L38.4361 33.6992V33.6494H39.9319C40.6158 33.6494 41.2283 33.2647 41.2283 32.3387V31.2917C41.2283 30.2802 40.7084 29.9098 39.9319 29.9098H33.5425V36H35.5655V30.907H38.9418C39.127 30.907 39.1769 30.964 39.184 31.0708V32.5952C39.1698 32.6949 39.07 32.759 38.9347 32.759H36.1353V33.6921L38.9632 36.0071H41.7768L39.1199 34.0198ZM7.83538 15.2006L11.518 7.97784H26.9537V2.92758H44.2272V7.97784H63.3953L59.7127 15.2006H44.2272V20.2509H26.9537V15.2006H7.83538ZM47.1547 0H24.0261V5.05026H6.65295L0 18.1282H24.0261V23.1785H47.1547V18.1282H64.5706L71.2307 5.05026H47.1547V0Z" fill="#1D1D1B"/>
</g>
<defs>
<clipPath id="clip0_150_1259">
<rect width="71.2307" height="36" fill="white"/>
</clipPath>
</defs>
</svg>
