<svg width="175" height="29" viewBox="0 0 175 29" fill="none" xmlns="http://www.w3.org/2000/svg">
<g clip-path="url(#clip0_150_1267)">
<path d="M172.47 14.7467C171.286 14.7398 111.202 14.1903 109.157 14.1903C107.108 14.1903 106.261 14.1355 103.543 14.9298C102.027 15.3742 99.4595 16.2355 97.3115 16.3176C95.2676 16.3914 87.182 16.3722 87.182 16.3722C87.182 16.3722 79.0978 16.3968 77.0539 16.3231C74.9074 16.2437 72.3384 15.3824 70.8167 14.9381C68.0987 14.141 67.2538 14.1957 65.2043 14.1957C63.1604 14.1957 3.07775 14.7439 1.89377 14.7521C0.0726647 14.7658 -0.680652 15.3797 0.742576 16.6279C2.03321 17.7586 6.71583 20.0035 9.55686 20.6844C14.2545 21.8 42.9519 25.2426 48.2362 25.8155C59.8682 27.0815 75.9382 28.8493 76.7462 28.7987C79.4765 28.6251 81.9539 27.6229 87.1848 27.6229C92.4156 27.6229 94.893 28.621 97.6219 28.7919C98.4299 28.8438 114.494 27.076 126.128 25.81C131.412 25.2371 160.107 21.7945 164.809 20.6762C167.648 19.9981 172.331 17.7518 173.623 16.6197C175.045 15.3714 174.291 14.7576 172.47 14.7467ZM113.886 18.8755C114.563 18.8947 117.314 18.8783 119.349 18.825C119.297 18.8592 119.243 18.892 119.192 18.9303C118.375 19.51 117.441 20.0568 116.641 20.5025C116.555 20.4998 116.469 20.4971 116.37 20.4971C115.569 20.4943 107.375 20.5162 107.375 20.5162C107.375 20.5162 110.994 20.735 111.061 21.0002C111.58 20.9974 114.084 20.9263 115.957 20.8785C115.587 21.0795 115.27 21.2436 115.052 21.3639C116.718 20.4916 114.343 21.7823 114.834 21.4869C114.887 21.4541 114.963 21.4117 115.052 21.3639C114.98 21.4022 114.903 21.4432 114.814 21.4869C113.509 22.1733 109.455 23.7073 103.847 24.5618C100.812 25.0225 101.413 24.9582 99.5045 25.1251C99.5045 25.1251 97.7477 25.2741 98.043 25.2699C98.3397 25.2672 105.098 25.4341 110.312 24.1489C115.339 22.9088 118.751 21.0029 119.939 20.3234C121.56 19.391 123.199 18.8592 125.86 18.6801C127.086 18.5967 165.466 16.9095 165.547 16.9069C169.657 16.6936 172.565 16.0824 173.076 15.9115C173.295 15.8391 173.474 15.7775 173.628 15.7242C173.553 15.8254 173.423 15.9512 173.198 16.1548C171.978 17.2213 167.358 19.4225 164.66 20.0651C159.98 21.182 131.174 24.6342 126.057 25.1906L123.195 25.501C115.524 26.335 105.766 27.3946 100.816 27.8922C99.0424 28.0672 98.4696 27.8594 98.0184 27.7336C97.5618 27.6106 95.7106 27.0624 94.893 26.9106C93.0678 26.5811 90.5481 26.1149 87.1848 26.1149C83.8228 26.1149 81.299 26.5865 79.4752 26.9188C78.6562 27.0678 76.805 27.616 76.3511 27.7391C75.8972 27.8676 75.3244 28.0713 73.5511 27.8963C68.5964 27.4028 58.8414 26.3405 51.1687 25.5065L48.3073 25.1961C43.1926 24.6396 14.3844 21.1861 9.70727 20.0733C7.00568 19.428 2.38322 17.2254 1.1664 16.1576C0.931248 15.9512 0.801363 15.8226 0.72889 15.7215C0.883391 15.7748 1.0666 15.8363 1.28944 15.9115C1.80214 16.0824 4.71156 16.6936 8.82132 16.9069C8.90063 16.9095 47.2819 18.5967 48.5055 18.6801C51.1661 18.8592 52.8053 19.391 54.4282 20.3234C55.6149 21.0029 59.0288 22.9088 64.0545 24.1489C69.2677 25.4341 76.0285 25.2672 76.3251 25.2699C76.6218 25.2741 74.8636 25.1251 74.8636 25.1251C72.955 24.9582 73.558 25.0225 70.5187 24.5618C64.909 23.7073 60.8581 22.1733 59.5537 21.4869C59.4635 21.4432 59.387 21.4022 59.3132 21.3639C59.402 21.4117 59.4785 21.4541 59.5346 21.4869C60.0255 21.7823 57.6479 20.4916 59.3132 21.3639C59.0917 21.2436 58.7718 21.074 58.393 20.8703C60.2893 20.9154 63.1002 20.9974 63.6499 21.0002C63.7169 20.735 67.3331 20.5162 67.3331 20.5162C67.3331 20.5162 59.145 20.4943 58.3383 20.4971C58.1073 20.4971 57.9158 20.5053 57.7532 20.5162C56.9452 20.0705 56.0018 19.5154 55.1746 18.9303C55.1186 18.8892 55.0598 18.851 55.001 18.814C57.06 18.8755 60.1088 18.8947 60.8266 18.8755C60.8896 18.6144 64.9227 18.3628 64.9227 18.3628C64.9227 18.3628 55.3879 18.3519 54.5704 18.3519C54.4364 18.3519 54.3078 18.3588 54.1862 18.3656C52.3528 17.5261 50.0832 17.4305 48.6832 17.4127C47.852 17.4018 13.3741 16.6962 8.66957 16.6101C7.14925 16.524 3.60276 16.2957 1.31268 15.7242C1.06522 15.664 0.846467 15.6094 0.659171 15.5684C0.653705 15.4399 1.11037 15.3824 1.89786 15.377L13.4028 15.2772C30.9863 15.1172 63.7169 14.8191 65.2043 14.8191H65.5639C67.3536 14.8164 68.1712 14.8137 70.6349 15.5369L71.2884 15.7324C72.8948 16.2137 75.0837 16.8781 77.0319 16.9478C79.0649 17.0217 86.8566 16.9998 87.182 16.9971C87.5101 16.9998 95.3018 17.0162 97.3361 16.9424C99.2803 16.8699 101.472 16.2096 103.073 15.7269L103.728 15.5314C106.191 14.8082 107.005 14.8109 108.799 14.8137H109.157C110.647 14.8137 143.378 15.109 160.961 15.269L172.466 15.3714C173.266 15.377 173.73 15.4344 173.705 15.5684C173.52 15.6094 173.302 15.664 173.053 15.7242C170.764 16.2957 167.218 16.524 165.695 16.6101C160.991 16.6962 126.513 17.4018 125.684 17.4127C124.29 17.4305 122.037 17.5235 120.209 18.3519H120.142C119.325 18.3519 109.786 18.3628 109.786 18.3628C109.786 18.3628 113.82 18.6144 113.886 18.8755Z" fill="#1D1D1D"/>
<path d="M108.546 18.2988H89.7912H85.2124H66.4546C65.9651 18.2988 65.9255 18.3508 66.2057 18.8648C66.5148 19.4391 68.3728 21.3204 72.3568 22.3485C74.0302 22.7846 79.7697 22.8529 85.5789 22.8625V22.8653H87.5026H89.4262V22.8625C95.2381 22.8529 100.975 22.7846 102.648 22.3485C106.626 21.3204 108.482 19.4391 108.794 18.8648C109.076 18.3508 109.034 18.2988 108.546 18.2988ZM73.3876 20.8063C73.9632 20.8063 74.5648 20.7462 74.7001 20.7407L74.6044 21.0661C74.4554 21.0797 73.8607 21.1385 73.2071 21.1385C71.9958 21.1385 70.9089 20.8541 70.9089 20.2772C70.9089 19.7002 71.9958 19.4131 73.2071 19.4131C73.8607 19.4131 74.4554 19.4747 74.6044 19.4883L74.7001 19.8165C74.5648 19.811 73.9632 19.7481 73.3876 19.7481C72.7505 19.7481 71.8591 19.9053 71.8591 20.2772C71.8591 20.649 72.7505 20.8063 73.3876 20.8063ZM79.3814 21.0948H78.4216V20.4508H76.4201V21.0948H75.4643V19.5129H76.4201V20.1569H78.4216V19.5129H79.3814V21.0948ZM82.9101 21.1016C82.9101 21.1016 81.9257 20.4057 81.6947 20.2361C82.6613 20.2744 82.8281 20.1322 82.8281 20.0065C82.8281 19.8452 82.0611 19.7563 81.1902 19.8082V21.1016H80.1798V19.5184H82.3564C83.4625 19.5184 83.8002 19.7454 83.8002 19.9654C83.8002 20.1678 83.401 20.3483 82.757 20.392C83.0291 20.5466 83.982 21.1016 83.982 21.1016H82.9101ZM86.2953 20.3975V21.0948H85.341L85.3396 20.4112L83.9806 19.5129H85.0922L86.0177 20.0844L86.9078 19.5129H87.5531L86.2953 20.3975ZM89.2744 21.1631C88.5484 21.1631 87.8744 21.077 87.7828 21.0661L87.8772 20.727C87.9947 20.7516 88.5539 20.8514 89.2361 20.8514C90.0086 20.8514 90.0565 20.716 90.0565 20.66C90.0565 20.5657 89.8404 20.5329 89.4932 20.5001C89.109 20.459 88.9121 20.4357 88.7781 20.4194C88.0945 20.3359 87.8129 20.1992 87.8129 19.9053C87.8129 19.4992 88.7002 19.4323 89.2785 19.4323C89.9567 19.4323 90.6649 19.5102 90.8221 19.5293L90.7469 19.8356C90.6362 19.8165 90.1371 19.7412 89.5629 19.7412C88.9545 19.7412 88.8246 19.7945 88.8246 19.878C88.8246 19.9791 89.016 20.0119 89.3236 20.0379C89.5397 20.0571 89.8418 20.0898 90.1303 20.1186C90.7742 20.1924 91.0846 20.3428 91.0846 20.6258C91.0846 21.025 90.2 21.1631 89.2744 21.1631ZM94.9127 21.0948H91.7832V19.5129H92.7375V20.809H94.9127V21.0948ZM98.8953 21.0948H95.6989V19.5129H98.8516V19.8028H96.6354V20.1569H98.8092V20.4508H96.6354V20.809H98.8953V21.0948ZM102.389 21.1016C102.389 21.1016 101.405 20.4057 101.173 20.2361C102.141 20.2744 102.306 20.1322 102.306 20.0065C102.306 19.8452 101.541 19.7563 100.669 19.8082V21.1016H99.6596V19.5184H101.836C102.944 19.5184 103.277 19.7454 103.277 19.9654C103.277 20.1678 102.881 20.3483 102.237 20.392C102.507 20.5466 103.46 21.1016 103.46 21.1016H102.389Z" fill="#1D1D1D"/>
<path d="M107.842 6.41307H118.377V5.73364H110.004V0.308594H107.816V6.41307H107.842Z" fill="#1D1D1D"/>
<path d="M51.1286 6.41307H53.3147V0.308594H51.1286V2.99375H44.0588V0.308594H41.8945V6.41307H44.0588V3.67459H51.1286V6.41307Z" fill="#1D1D1D"/>
<path d="M81.6669 6.41307V3.79083L85.7165 0.308594H84.5325L81.1542 3.16056L77.7607 0.308594H75.1152L79.4834 3.82505V6.41307H81.6669Z" fill="#1D1D1D"/>
<path d="M123.474 6.41307H134.238V5.72947H125.662V3.63771H133.924V2.98282H125.662V0.989437H134.238V0.308594H123.48V6.41307H123.474Z" fill="#1D1D1D"/>
<path d="M90.333 6.26995C92.2279 6.63503 94.09 6.7143 95.3506 6.7143C99.2047 6.7143 101.414 5.99107 101.414 4.72777C101.414 3.99502 101.068 3.29907 96.875 2.82059L96.3992 2.7686C94.63 2.5745 93.2246 2.51976 93.2315 1.59559C93.2383 0.828544 94.4113 0.680927 96.3664 0.686351C98.5922 0.691858 100.408 1.0924 100.408 1.0924L100.584 0.386943C98.9695 0.132681 97.2318 0 95.5324 0C93.2779 0 90.59 0.292648 90.59 1.69122C90.59 2.7782 91.491 3.21838 94.4428 3.57937L95.1318 3.6614C97.5777 3.95396 98.7002 4.11669 98.6934 4.9479C98.6865 5.80381 97.3125 6.02662 95.2043 6.00884C92.4002 5.98565 90.5353 5.45651 90.5353 5.45651C90.5353 5.45651 90.3795 6.04848 90.333 6.26995Z" fill="#1D1D1D"/>
<path d="M31.1069 0.0136719C26.5309 0.0136719 24.0098 1.20321 24.0098 3.36198C24.0098 5.49204 26.5569 6.71429 31.0002 6.71429C32.5903 6.71429 34.2432 6.52562 34.9596 6.43408L35.0567 5.73546C34.3047 5.82425 33.0524 5.98154 31.7248 5.98154C28.2631 5.98154 26.4529 5.09008 26.4529 3.36198C26.4529 1.60651 28.2303 0.738325 31.7754 0.738325C33.0524 0.738325 34.3252 0.89145 35.0553 0.978985L34.9596 0.288546C34.2254 0.196921 32.7311 0.0136719 31.1069 0.0136719Z" fill="#1D1D1D"/>
<path d="M70.5731 6.41314L66.3607 3.74851C66.3607 3.74851 68.2065 3.68426 69.1786 3.3206C69.9961 3.01568 70.5143 2.55631 70.5157 2.08191C70.5198 1.76473 70.5334 1.0223 68.3364 0.547906C66.7245 0.199265 64.0653 0.200684 64.0653 0.200684C62.6707 0.200684 61.1982 0.230725 59.6875 0.292225V6.41314H61.8764V0.911568C61.8764 0.911568 62.9305 0.76395 64.1814 0.774882C66.3074 0.792656 68.0534 1.05651 68.0534 2.09009C68.0534 3.39987 64.9676 3.53247 63.7344 3.53389L67.3589 6.41314H70.5731Z" fill="#1D1D1D"/>
<path d="M151.138 6.41314L146.923 3.74851C146.923 3.74851 148.77 3.68426 149.742 3.3206C150.558 3.01568 151.076 2.55631 151.079 2.08191C151.083 1.76473 151.097 1.0223 148.9 0.547906C147.288 0.199265 144.627 0.200684 144.627 0.200684C143.23 0.200684 141.759 0.230725 140.248 0.292225V6.41314H142.437V0.911568C142.437 0.911568 143.49 0.76395 144.742 0.774882C146.869 0.792656 148.617 1.05651 148.617 2.09009C148.617 3.39987 145.531 3.53247 144.295 3.53389L147.923 6.41314H151.138Z" fill="#1D1D1D"/>
</g>
<defs>
<clipPath id="clip0_150_1267">
<rect width="174.364" height="28.8" fill="white"/>
</clipPath>
</defs>
</svg>
