<svg width="24" height="24" viewBox="0 0 24 24" fill="none" xmlns="http://www.w3.org/2000/svg">
<path d="M5 4.99972V18.9997C5 19.2649 5.10536 19.5193 5.29289 19.7068C5.48043 19.8944 5.73478 19.9997 6 19.9997H9V17.9997H7V5.99972H9V3.99972H6C5.73478 3.99972 5.48043 4.10508 5.29289 4.29262C5.10536 4.48015 5 4.73451 5 4.99972ZM19.242 4.02972L11.242 2.02972C11.0946 1.99296 10.9408 1.99026 10.7922 2.02183C10.6436 2.05339 10.5042 2.11838 10.3845 2.21188C10.2648 2.30538 10.1679 2.42492 10.1013 2.56142C10.0347 2.69793 10 2.84783 10 2.99972V20.9997C9.99965 21.1518 10.034 21.3018 10.1005 21.4386C10.167 21.5753 10.2639 21.695 10.3837 21.7886C10.5035 21.8821 10.6431 21.9471 10.7919 21.9785C10.9406 22.0099 11.0946 22.0069 11.242 21.9697L19.242 19.9697C19.4584 19.9157 19.6506 19.7909 19.788 19.6152C19.9253 19.4394 19.9999 19.2228 20 18.9997V4.99972C19.9999 4.77666 19.9253 4.56002 19.788 4.38426C19.6506 4.2085 19.4584 4.08371 19.242 4.02972ZM15 12.1877C14.9885 12.4452 14.8781 12.6883 14.6918 12.8664C14.5055 13.0446 14.2577 13.144 14 13.144C13.7423 13.144 13.4945 13.0446 13.3082 12.8664C13.1219 12.6883 13.0115 12.4452 13 12.1877V11.8107C13.0001 11.5455 13.1056 11.2912 13.2932 11.1038C13.4809 10.9163 13.7353 10.8111 14.0005 10.8112C14.2657 10.8114 14.52 10.9168 14.7075 11.1045C14.8949 11.2921 15.0001 11.5465 15 11.8117V12.1877Z" fill="#FFBB29"/>
</svg>
