<svg width="36" height="36" viewBox="0 0 36 36" fill="none" xmlns="http://www.w3.org/2000/svg">
<path d="M6.3879 5.48428C6.6743 4.33864 6.81751 3.7674 7.24398 3.43378C7.67202 3.10016 8.26214 3.10016 9.4424 3.10016H26.5577C27.738 3.10016 28.3281 3.10016 28.7561 3.43378C29.181 3.7674 29.3258 4.33864 29.6122 5.48428L31.5053 13.06C31.658 13.6705 31.7351 13.9743 31.7178 14.2229C31.6963 14.5365 31.5813 14.8364 31.3878 15.0841C31.1943 15.3317 30.931 15.5158 30.6319 15.6125C30.3959 15.6896 30.0749 15.6896 29.4312 15.6896C28.5925 15.6896 28.1723 15.6896 27.8214 15.6077C27.3348 15.4944 26.8822 15.2669 26.5011 14.944C26.1199 14.6211 25.821 14.2121 25.6292 13.7508C25.4892 13.4172 25.4215 13.0112 25.2877 12.2039C25.25 11.9773 25.2311 11.864 25.2091 11.8341C25.1945 11.8139 25.1753 11.7975 25.1532 11.7862C25.131 11.7749 25.1065 11.769 25.0816 11.769C25.0567 11.769 25.0322 11.7749 25.01 11.7862C24.9879 11.7975 24.9687 11.8139 24.9541 11.8341C24.9321 11.864 24.9132 11.9757 24.8754 12.2039L24.748 12.9734L24.7196 13.1308C24.5852 13.8382 24.2122 14.4782 23.6629 14.9438C23.1136 15.4095 22.4212 15.6727 21.7013 15.6896H21.3803C20.6326 15.6727 19.9153 15.39 19.357 14.8923C18.7987 14.3946 18.4359 13.7143 18.3337 12.9734L18.2062 12.2023C18.1684 11.9773 18.1495 11.864 18.1275 11.8341C18.1129 11.8139 18.0938 11.7975 18.0716 11.7862C18.0495 11.7749 18.0249 11.769 18.0001 11.769C17.9752 11.769 17.9506 11.7749 17.9285 11.7862C17.9063 11.7975 17.8872 11.8139 17.8726 11.8341C17.8506 11.864 17.8317 11.9757 17.7939 12.2039L17.6664 12.9734L17.6381 13.1308C17.5036 13.8382 17.1306 14.4782 16.5814 14.9438C16.0321 15.4095 15.3397 15.6727 14.6198 15.6896H14.2988C13.5788 15.6727 12.8865 15.4095 12.3372 14.9438C11.7879 14.4782 11.4149 13.8382 11.2805 13.1308L11.2521 12.9734L11.1247 12.2023C11.0869 11.9773 11.068 11.864 11.046 11.8341C11.0314 11.8139 11.0122 11.7975 10.9901 11.7862C10.9679 11.7749 10.9434 11.769 10.9185 11.769C10.8936 11.769 10.8691 11.7749 10.8469 11.7862C10.8248 11.7975 10.8056 11.8139 10.791 11.8341C10.769 11.864 10.7501 11.9757 10.7124 12.2039C10.5786 13.0127 10.5109 13.4156 10.3709 13.7508C10.1792 14.2119 9.88062 14.6208 9.49972 14.9437C9.11882 15.2666 8.66657 15.4942 8.18031 15.6077C7.82781 15.6896 7.40921 15.6896 6.56887 15.6896C5.92524 15.6896 5.60421 15.6896 5.36815 15.6125C5.06909 15.5158 4.80584 15.3317 4.61231 15.0841C4.41878 14.8364 4.30385 14.5365 4.28232 14.2229C4.26658 13.9743 4.34212 13.6705 4.49476 13.06L6.3879 5.48428Z" fill="#FFBB29"/>
<path fill-rule="evenodd" clip-rule="evenodd" d="M7.01107 18.0501C6.98432 18.7126 6.98432 19.49 6.98432 20.4106V29.8526C6.98432 31.3366 6.98432 32.0778 7.44541 32.5389C7.90649 33 8.64769 33 10.1317 33H14.8527V26.7053C14.8527 26.2879 15.0185 25.8877 15.3136 25.5925C15.6087 25.2974 16.009 25.1316 16.4264 25.1316H19.5737C19.9911 25.1316 20.3914 25.2974 20.6865 25.5925C20.9816 25.8877 21.1474 26.2879 21.1474 26.7053V33H25.8684C27.3524 33 28.0936 33 28.5547 32.5389C29.0158 32.0778 29.0158 31.3366 29.0158 29.8526V20.4106C29.0158 19.49 29.0158 18.7126 28.989 18.0501C28.4146 18.0501 27.8277 18.0328 27.2847 17.9069C26.4791 17.7191 25.7261 17.3523 25.0816 16.8336C24.1626 17.5733 23.0043 18.0202 21.7564 18.0485L21.5581 18.0501H21.3252C20.113 18.0212 18.9441 17.593 18.0001 16.8321C17.081 17.5717 15.9228 18.0186 14.6749 18.0469L14.4766 18.0485H14.2437C13.0316 18.02 11.8628 17.5925 10.9185 16.8321C10.2827 17.3435 9.53367 17.7133 8.71536 17.9053C8.17244 18.0312 7.58546 18.0469 7.01107 18.0485" fill="#FFBB29"/>
</svg>
