<svg width="36" height="36" viewBox="0 0 36 36" fill="none" xmlns="http://www.w3.org/2000/svg">
<path d="M32.6149 18.4965L19.1149 3.49651C18.5464 2.86351 17.4544 2.86351 16.8859 3.49651L3.38592 18.4965C3.19194 18.7121 3.06461 18.9793 3.01936 19.2657C2.9741 19.5522 3.01285 19.8456 3.13092 20.1105C3.37092 20.652 3.90792 21 4.50042 21H7.50042V31.5C7.50042 31.8978 7.65845 32.2794 7.93976 32.5607C8.22106 32.842 8.60259 33 9.00042 33H13.5004C13.8982 33 14.2798 32.842 14.5611 32.5607C14.8424 32.2794 15.0004 31.8978 15.0004 31.5V25.5H21.0004V31.5C21.0004 31.8978 21.1585 32.2794 21.4398 32.5607C21.7211 32.842 22.1026 33 22.5004 33H27.0004C27.3982 33 27.7798 32.842 28.0611 32.5607C28.3424 32.2794 28.5004 31.8978 28.5004 31.5V21H31.5004C31.7909 21.0012 32.0755 20.9179 32.3195 20.7602C32.5634 20.6025 32.7563 20.3772 32.8744 20.1118C32.9925 19.8465 33.0309 19.5524 32.9848 19.2656C32.9388 18.9788 32.8102 18.7115 32.6149 18.4965Z" fill="#FFBB29"/>
</svg>
