<svg width="43" height="44" viewBox="0 0 43 44" fill="none" xmlns="http://www.w3.org/2000/svg">
<g clip-path="url(#clip0_150_686)">
<mask id="mask0_150_686" style="mask-type:luminance" maskUnits="userSpaceOnUse" x="0" y="0" width="43" height="43">
<path d="M41.7222 17.5719H21.6638V25.7798H33.1898C33.0062 26.9413 32.5877 28.0858 31.9813 29.1278C31.2809 30.3235 30.4226 31.2332 29.5343 31.925C26.8866 34.0004 23.7948 34.4232 21.651 34.4232C16.2318 34.4232 11.6026 30.8445 9.80903 25.9848C9.73643 25.8097 9.68946 25.626 9.62967 25.4467C9.23252 24.2082 9.019 22.8972 9.019 21.5392C9.019 20.1812 9.25387 18.7634 9.68092 17.4823C11.3635 12.426 16.0994 8.65094 21.6553 8.65094C22.7742 8.65094 23.8503 8.7876 24.871 9.05664C27.2026 9.67586 28.8553 10.8929 29.8631 11.8581L35.9613 5.75557C32.246 2.28796 27.4119 0.182617 21.6425 0.182617C17.0304 0.182617 12.7727 1.65166 9.28376 4.12852C6.45245 6.13991 4.13359 8.83458 2.56633 11.9606C1.1101 14.8602 0.311523 18.0759 0.311523 21.5307C0.311523 24.9855 1.1101 28.2353 2.56633 31.1093V31.1264C4.10369 34.1755 6.35423 36.8018 9.09159 38.8047C11.4788 40.5556 15.7663 42.883 21.6425 42.883C25.0247 42.883 28.0183 42.2595 30.6617 41.0937C32.5663 40.2524 34.2574 39.1549 35.7863 37.7456C37.8062 35.8837 39.3863 33.5776 40.4667 30.9257C41.5471 28.2737 42.1236 25.2716 42.1236 22.0218C42.1236 20.51 41.9742 18.9684 41.7222 17.5719Z" fill="white"/>
</mask>
<g mask="url(#mask0_150_686)">
<path d="M0.00488281 21.6757C0.0262351 25.0749 0.974278 28.5853 2.41342 31.4209V31.4422C3.45115 33.5006 4.86894 35.1233 6.48317 36.7333L16.2412 33.0949C14.3963 32.1383 14.1145 31.549 12.7906 30.4814C11.4369 29.0892 10.4291 27.4878 9.80132 25.613H9.77997L9.80559 25.5917C9.39136 24.3532 9.35293 23.0379 9.33584 21.6714L0.00488281 21.6757Z" fill="url(#paint0_radial_150_686)"/>
<path d="M21.6639 0.0244141C20.6988 3.48349 21.0703 6.84861 21.6639 8.80448C22.7785 8.80448 23.8504 8.94114 24.8667 9.21018C27.1984 9.8294 28.8468 11.0465 29.8589 12.0116L36.1151 5.75537C32.4084 2.29203 27.95 0.032955 21.6639 0.0244141Z" fill="url(#paint1_radial_150_686)"/>
<path d="M21.6429 -0.00146484C16.9113 -0.00146484 12.5426 1.50174 8.96394 4.04693C7.63582 4.99071 6.41447 6.08394 5.32977 7.29676C5.04792 10.0213 7.46074 13.3736 12.2394 13.3437C14.5582 10.5893 17.9874 8.80423 21.8052 8.80423C21.8095 8.80423 21.8095 8.80423 21.818 8.80423L21.6643 -0.00146484C21.6643 -0.00146484 21.6472 -0.00146484 21.6429 -0.00146484Z" fill="url(#paint2_radial_150_686)"/>
<path d="M37.2559 22.6617L33.0324 25.6254C32.8488 26.787 32.4303 27.9314 31.8196 28.9734C31.1192 30.1692 30.2609 31.0788 29.3726 31.7706C26.7292 33.8418 23.6459 34.2645 21.5021 34.2688C19.2858 38.125 18.8972 40.0553 21.6602 43.1685C25.0765 43.1642 28.1043 42.5364 30.7776 41.3578C32.7078 40.5037 34.4203 39.3934 35.9705 37.9628C38.016 36.0752 39.6217 33.7393 40.715 31.0489C41.8082 28.3628 42.3932 25.3222 42.3932 22.0254L37.2559 22.6617Z" fill="url(#paint3_radial_150_686)"/>
<path d="M21.3525 17.2603V26.0916H41.6671C41.8465 24.883 42.4358 23.3158 42.4358 22.0218C42.4358 20.5058 42.2863 18.6567 42.0344 17.2603H21.3525Z" fill="#3086FF"/>
<path d="M5.42776 6.98535C4.17224 8.38606 3.10463 9.95332 2.2548 11.6487C0.798577 14.5483 0 18.0757 0 21.5305C0 21.5775 0.00427046 21.6288 0.00427046 21.6757C0.64911 22.9398 8.91673 22.6964 9.33523 21.6757C9.33523 21.6288 9.33096 21.5818 9.33096 21.5348C9.33096 20.117 9.56584 19.0708 9.99288 17.7896C10.5181 16.2096 11.3466 14.7533 12.4014 13.5021C12.6406 13.1903 13.2811 12.5199 13.4648 12.1184C13.5331 11.9647 13.3367 11.8793 13.3238 11.8238C13.311 11.764 13.042 11.811 12.9822 11.7683C12.79 11.6231 12.4142 11.5505 12.1836 11.4864C11.6925 11.3455 10.8811 11.0338 10.4327 10.7092C9.00641 9.68428 6.78577 8.46293 5.42776 6.98535Z" fill="url(#paint4_radial_150_686)"/>
<path d="M10.4632 11.8287C13.7643 13.8742 14.7166 10.7995 16.9116 9.83435L13.0938 1.74609C11.6888 2.34823 10.3607 3.09983 9.12654 3.97528C7.28597 5.28204 5.66319 6.87919 4.32227 8.69414L10.4632 11.8287Z" fill="url(#paint5_radial_150_686)"/>
<path d="M11.808 32.471C7.37522 34.1066 6.67913 34.1664 6.27344 36.9721C7.05493 37.7493 7.89194 38.471 8.7802 39.1201C11.1674 40.871 15.7667 43.1984 21.6428 43.1984C21.6471 43.1984 21.6556 43.1984 21.6642 43.1984V34.1109C21.6642 34.1109 21.6556 34.1109 21.6514 34.1109C19.4478 34.1109 17.6927 33.5215 15.8905 32.4923C15.4464 32.2404 14.6393 32.9194 14.2293 32.6162C13.6571 32.1977 12.2991 32.9792 11.808 32.471Z" fill="url(#paint6_radial_150_686)"/>
<path opacity="0.5" d="M19.0674 33.8247V43.0404C19.8873 43.1386 20.7457 43.1984 21.6425 43.1984C22.5393 43.1984 23.4147 43.1514 24.2603 43.066V33.8845C23.3122 34.051 22.4197 34.1108 21.651 34.1108C20.7628 34.1066 19.9001 34.0041 19.0674 33.8247Z" fill="url(#paint7_linear_150_686)"/>
</g>
</g>
<defs>
<radialGradient id="paint0_radial_150_686" cx="0" cy="0" r="1" gradientTransform="matrix(-0.868926 -21.2641 31.2844 -1.27803 15.8473 36.404)" gradientUnits="userSpaceOnUse">
<stop offset="0.14" stop-color="#1ABD4D"/>
<stop offset="0.25" stop-color="#6EC30D"/>
<stop offset="0.31" stop-color="#8AC502"/>
<stop offset="0.37" stop-color="#A2C600"/>
<stop offset="0.45" stop-color="#C8C903"/>
<stop offset="0.54" stop-color="#EBCB03"/>
<stop offset="0.62" stop-color="#F7CD07"/>
<stop offset="0.7" stop-color="#FDCD04"/>
<stop offset="0.77" stop-color="#FDCE05"/>
<stop offset="0.86" stop-color="#FFCE0A"/>
</radialGradient>
<radialGradient id="paint1_radial_150_686" cx="0" cy="0" r="1" gradientUnits="userSpaceOnUse" gradientTransform="translate(35.5584 11.8004) scale(14.7728 19.0255)">
<stop offset="0.41" stop-color="#FB4E5A"/>
<stop offset="1" stop-color="#FF4540"/>
</radialGradient>
<radialGradient id="paint2_radial_150_686" cx="0" cy="0" r="1" gradientTransform="matrix(-20.6646 11.4443 15.5481 28.0721 27.3643 -2.8071)" gradientUnits="userSpaceOnUse">
<stop offset="0.23" stop-color="#FF4541"/>
<stop offset="0.31" stop-color="#FF4540"/>
<stop offset="0.46" stop-color="#FF4640"/>
<stop offset="0.54" stop-color="#FF473F"/>
<stop offset="0.7" stop-color="#FF5138"/>
<stop offset="0.77" stop-color="#FF5B33"/>
<stop offset="0.86" stop-color="#FF6C29"/>
<stop offset="1" stop-color="#FF8C18"/>
</radialGradient>
<radialGradient id="paint3_radial_150_686" cx="0" cy="0" r="1" gradientTransform="matrix(-37.4673 -48.9173 -18.0451 13.8221 21.6723 40.3349)" gradientUnits="userSpaceOnUse">
<stop offset="0.13" stop-color="#0CBA65"/>
<stop offset="0.21" stop-color="#0BB86D"/>
<stop offset="0.3" stop-color="#09B479"/>
<stop offset="0.4" stop-color="#08AD93"/>
<stop offset="0.48" stop-color="#0AA6A9"/>
<stop offset="0.57" stop-color="#0D9CC6"/>
<stop offset="0.67" stop-color="#1893DD"/>
<stop offset="0.77" stop-color="#258BF1"/>
<stop offset="0.86" stop-color="#3086FF"/>
</radialGradient>
<radialGradient id="paint4_radial_150_686" cx="0" cy="0" r="1" gradientTransform="matrix(-2.65857 22.9109 31.6544 3.67364 19.7115 3.90566)" gradientUnits="userSpaceOnUse">
<stop offset="0.37" stop-color="#FF4E3A"/>
<stop offset="0.46" stop-color="#FF8A1B"/>
<stop offset="0.54" stop-color="#FFA312"/>
<stop offset="0.62" stop-color="#FFB60C"/>
<stop offset="0.77" stop-color="#FFCD0A"/>
<stop offset="0.86" stop-color="#FECF0A"/>
<stop offset="0.92" stop-color="#FECF08"/>
<stop offset="1" stop-color="#FDCD01"/>
</radialGradient>
<radialGradient id="paint5_radial_150_686" cx="0" cy="0" r="1" gradientTransform="matrix(-7.65047 8.46114 -23.9101 -21.6191 15.7711 3.79448)" gradientUnits="userSpaceOnUse">
<stop offset="0.32" stop-color="#FF4C3C"/>
<stop offset="0.6" stop-color="#FF692C"/>
<stop offset="0.73" stop-color="#FF7825"/>
<stop offset="0.88" stop-color="#FF8D1B"/>
<stop offset="1" stop-color="#FF9F13"/>
</radialGradient>
<radialGradient id="paint6_radial_150_686" cx="0" cy="0" r="1" gradientTransform="matrix(-20.6646 -11.4443 15.5481 -28.0721 27.3252 45.9077)" gradientUnits="userSpaceOnUse">
<stop offset="0.23" stop-color="#0FBC5F"/>
<stop offset="0.31" stop-color="#0FBC5F"/>
<stop offset="0.37" stop-color="#0FBC5E"/>
<stop offset="0.46" stop-color="#0FBC5D"/>
<stop offset="0.54" stop-color="#12BC58"/>
<stop offset="0.7" stop-color="#28BF3C"/>
<stop offset="0.77" stop-color="#38C02B"/>
<stop offset="0.86" stop-color="#52C218"/>
<stop offset="0.92" stop-color="#67C30F"/>
<stop offset="1" stop-color="#86C504"/>
</radialGradient>
<linearGradient id="paint7_linear_150_686" x1="19.1441" y1="38.5094" x2="24.3487" y2="38.5094" gradientUnits="userSpaceOnUse">
<stop stop-color="#0FBC5C"/>
<stop offset="1" stop-color="#0CBA65"/>
</linearGradient>
<clipPath id="clip0_150_686">
<rect width="42.4356" height="43.2" fill="white"/>
</clipPath>
</defs>
</svg>
