<svg width="20" height="20" viewBox="0 0 20 20" fill="none" xmlns="http://www.w3.org/2000/svg">
<g clip-path="url(#clip0_320_474)">
<path d="M19.2217 8.65795H18.4983V8.62069H10.4164V12.2126H15.4914C14.751 14.3036 12.7615 15.8046 10.4164 15.8046C7.44093 15.8046 5.02848 13.3922 5.02848 10.4167C5.02848 7.44118 7.44093 5.02873 10.4164 5.02873C11.7899 5.02873 13.0395 5.54687 13.9909 6.39322L16.5308 3.85326C14.927 2.35855 12.7817 1.43677 10.4164 1.43677C5.45727 1.43677 1.43652 5.45752 1.43652 10.4167C1.43652 15.3758 5.45727 19.3966 10.4164 19.3966C15.3756 19.3966 19.3963 15.3758 19.3963 10.4167C19.3963 9.81456 19.3344 9.22683 19.2217 8.65795Z" fill="#FFC107"/>
<path d="M2.47191 6.23697L5.42225 8.40068C6.22056 6.4242 8.15394 5.02873 10.4164 5.02873C11.7899 5.02873 13.0395 5.54687 13.9909 6.39322L16.5308 3.85326C14.927 2.35855 12.7817 1.43677 10.4164 1.43677C6.96724 1.43677 3.97604 3.38406 2.47191 6.23697Z" fill="#FF3D00"/>
<path d="M10.4164 19.3966C12.7359 19.3966 14.8435 18.5089 16.437 17.0654L13.6577 14.7135C12.726 15.4225 11.5872 15.8059 10.4164 15.8046C8.08075 15.8046 6.09754 14.3153 5.35041 12.2369L2.42207 14.4931C3.90824 17.4012 6.92638 19.3966 10.4164 19.3966Z" fill="#4CAF50"/>
<path d="M19.2217 8.65795H18.4983V8.62069H10.4164V12.2126H15.4914C15.1372 13.2078 14.4993 14.0774 13.6564 14.714L13.6577 14.7135L16.437 17.0654C16.2403 17.2441 19.3963 14.9066 19.3963 10.4167C19.3963 9.81456 19.3344 9.22683 19.2217 8.65795Z" fill="#1976D2"/>
</g>
<defs>
<clipPath id="clip0_320_474">
<rect width="20" height="20" fill="white"/>
</clipPath>
</defs>
</svg>
