<svg width="48" height="48" viewBox="0 0 48 48" fill="none" xmlns="http://www.w3.org/2000/svg">
<path fill-rule="evenodd" clip-rule="evenodd" d="M24.0008 0C10.7465 0 0 10.7449 0 23.9992C0 37.2535 10.7465 48 24.0008 48C37.2551 48 48 37.2535 48 23.9992C48 10.7449 37.2551 0 24.0008 0ZM4.35503 12.7199C8.35656 5.78071 15.7339 1.46551 23.7353 1.36095L20.63 21.9295L4.2289 35.1838C0.290443 28.2032 0.333597 19.6591 4.35503 12.7199ZM24.0904 46.7552C16.0658 46.7984 8.62709 42.5877 4.521 35.6917L24.0058 27.6273L43.5753 35.5672C39.5107 42.4848 32.0935 46.737 24.0904 46.7569V46.7552ZM27.2771 22.2017L24.3195 1.36261C32.2993 1.48875 39.6136 5.77906 43.6151 12.6784C47.6382 19.5777 47.7195 28.0571 43.8657 35.0378L27.2771 22.2017Z" fill="#231F20"/>
</svg>
