<svg width="24" height="24" viewBox="0 0 24 24" fill="none" xmlns="http://www.w3.org/2000/svg">
<path d="M12.6595 12C12.6595 11.4756 12.8678 10.9726 13.2387 10.6018C13.6095 10.2309 14.1125 10.0226 14.6369 10.0226C15.1614 10.0226 15.6643 10.2309 16.0352 10.6018C16.406 10.9726 16.6143 11.4756 16.6143 12C16.6143 12.5244 16.406 13.0274 16.0352 13.3982C15.6643 13.7691 15.1614 13.9774 14.6369 13.9774C14.1125 13.9774 13.6095 13.7691 13.2387 13.3982C12.8678 13.0274 12.6595 12.5244 12.6595 12Z" fill="#FFBB29"/>
<path fill-rule="evenodd" clip-rule="evenodd" d="M4.0907 2.11292C3.56625 2.11292 3.06329 2.32125 2.69245 2.69209C2.32162 3.06292 2.11328 3.56589 2.11328 4.09033V18.5914C2.11328 19.1158 2.32162 19.6188 2.69245 19.9896C3.06329 20.3605 3.56625 20.5688 4.0907 20.5688H4.74984V21.8871H6.06812V20.5688H17.9326V21.8871H19.2509V20.5688H19.91C20.4345 20.5688 20.9374 20.3605 21.3083 19.9896C21.6791 19.6188 21.8875 19.1158 21.8875 18.5914V4.09033C21.8875 3.56589 21.6791 3.06292 21.3083 2.69209C20.9374 2.32125 20.4345 2.11292 19.91 2.11292H4.0907ZM4.74984 6.06775V10.0226H6.06812V6.06775H4.74984ZM14.6369 8.70431C13.7628 8.70431 12.9246 9.05153 12.3065 9.66959C11.6885 10.2877 11.3412 11.1259 11.3412 12C11.3412 12.8741 11.6885 13.7123 12.3065 14.3304C12.9246 14.9485 13.7628 15.2957 14.6369 15.2957C15.511 15.2957 16.3493 14.9485 16.9673 14.3304C17.5854 13.7123 17.9326 12.8741 17.9326 12C17.9326 11.1259 17.5854 10.2877 16.9673 9.66959C16.3493 9.05153 15.511 8.70431 14.6369 8.70431ZM4.74984 16.614V12.6591H6.06812V16.614H4.74984Z" fill="#FFBB29"/>
</svg>
