<svg width="41" height="37" viewBox="0 0 41 37" fill="none" xmlns="http://www.w3.org/2000/svg">
<g clip-path="url(#clip0_150_1251)">
<path d="M13.381 0.511954C20.9231 0.242109 28.4727 0.51004 36.0016 1.00093C36.7943 1.07078 37.5973 1.06504 38.3778 1.23441C38.8 1.33776 39.2562 1.50139 39.5031 1.89084C39.7284 2.31475 39.7331 2.80946 39.7916 3.27643C39.9706 5.57011 40.0234 7.87336 40.1921 10.167C39.866 10.2072 39.5399 10.1565 39.2138 10.146C33.4069 9.84074 27.5952 9.58716 21.7789 9.57951C18.7666 9.58812 15.7505 9.55845 12.741 9.70677C12.0115 9.81586 11.1858 10.0637 10.7645 10.724C13.0416 11.1345 15.3141 11.5775 17.5903 11.9957C25.1343 13.4291 32.6839 14.831 40.2279 16.2625C40.2213 17.715 40.2242 19.1676 40.227 20.6202C35.9847 19.9073 31.7499 19.1379 27.5104 18.4021C18.3896 16.806 9.27153 15.1879 0.147849 13.6071C0.165757 11.9947 0.233619 10.3833 0.266607 8.76997C0.324102 7.49251 0.288285 6.19783 0.572929 4.94334C0.764262 4.05821 1.11865 3.1683 1.77937 2.53579C2.91983 1.38943 4.56925 1.06695 6.10463 0.905239C8.5241 0.677497 10.9539 0.602859 13.381 0.511954ZM0.104492 15.7285C13.1717 18.1763 26.2342 20.6652 39.2995 23.1272C39.5851 23.1981 39.8905 23.2038 40.1648 23.31L40.1978 23.3866C40.1261 25.5625 40.0847 27.7404 40.0074 29.9164C39.9574 31.259 39.8179 32.6637 39.1374 33.8464C38.4079 35.0693 37.0488 35.7458 35.7038 36.0013C33.7217 36.3793 31.6971 36.4042 29.6895 36.5161C21.0513 36.9142 12.3951 36.6941 3.77093 36.0913C3.08194 36.0425 2.3807 36.03 1.7115 35.8358C1.36465 35.7248 1.00649 35.5459 0.810447 35.2205C0.600263 34.7937 0.587068 34.3067 0.535229 33.8416C0.350493 31.303 0.25247 28.7595 0.121458 26.218C4.57019 26.5051 9.02647 26.6659 13.4837 26.7663C17.7873 26.8371 22.0909 26.8362 26.3944 26.8792C27.3228 26.9185 28.3266 26.7386 29.0307 26.0764C29.1334 25.9568 29.3003 25.8458 29.2833 25.6669C27.3436 25.3712 25.4152 25.0037 23.4792 24.6803C15.6901 23.3282 7.89732 21.9885 0.109205 20.6288C0.0997798 18.9954 0.11109 17.3619 0.104492 15.7285Z" fill="#19191B"/>
</g>
<defs>
<clipPath id="clip0_150_1251">
<rect width="41" height="37" fill="white"/>
</clipPath>
</defs>
</svg>
