<svg width="44" height="44" viewBox="0 0 44 44" fill="none" xmlns="http://www.w3.org/2000/svg">
<g clip-path="url(#clip0_150_709)">
<path d="M21.7512 42.8172C25.899 42.8205 29.9546 41.5936 33.405 39.2916C36.8554 36.9896 39.5456 33.716 41.1352 29.8848C42.7248 26.0537 43.1424 21.8372 42.3353 17.7686C41.5281 13.7001 39.5324 9.96237 36.6006 7.02824C33.6688 4.09411 29.9327 2.09542 25.8648 1.285C21.7969 0.474574 17.5801 0.888829 13.7477 2.47536C9.91527 4.0619 6.6395 6.74943 4.33475 10.198C2.02999 13.6465 0.799806 17.7012 0.799805 21.849C0.799803 27.4072 3.00664 32.738 6.9353 36.6698C10.864 40.6016 16.193 42.8127 21.7512 42.8172ZM24.0268 28.9322C24.0268 31.9972 23.2123 34.0252 21.6252 36.4604C20.0969 34.1217 19.1606 32.1903 19.1606 28.9322V20.6062C20.3572 19.0275 21.7848 18.3725 24.0268 18.234V28.9322ZM11.3889 11.7932H32.2478V16.1892H11.4056L11.3889 11.7932Z" fill="#069ED9"/>
</g>
<defs>
<clipPath id="clip0_150_709">
<rect width="43.2" height="43.2" fill="white"/>
</clipPath>
</defs>
</svg>
