<svg width="53" height="34" viewBox="0 0 53 34" fill="none" xmlns="http://www.w3.org/2000/svg">
<path d="M37.6354 1.65177C34.4154 0.616802 30.401 0 26.052 0C21.7031 0 17.6886 0.616802 14.4687 1.65177C5.8962 4.4117 0 10.1302 0 16.7477C0 26.052 11.667 33.6 26.052 33.6C40.4371 33.6 52.104 26.052 52.104 16.7477C52.104 10.1406 46.2183 4.4117 37.6354 1.65177ZM26.052 26.3657C23.9089 26.3657 22.1526 22.1421 22.048 16.8418C23.3444 16.9568 24.6825 17.0195 26.052 17.0195C27.4215 17.0195 28.7597 16.9568 30.056 16.8418C29.9515 22.1421 28.2056 26.3657 26.052 26.3657ZM22.3199 12.681C22.9053 8.9593 24.3584 6.31437 26.052 6.31437C27.7456 6.31437 29.1988 8.94885 29.7842 12.681C28.5924 12.7856 27.3379 12.8483 26.052 12.8483C24.7662 12.8483 23.5116 12.796 22.3199 12.681ZM32.0632 12.3988C31.1955 6.55482 28.8329 2.36266 26.052 2.36266C23.2712 2.36266 20.9085 6.55482 20.0408 12.3988C14.751 11.5729 11.0502 9.6911 11.0502 7.50616C11.0502 4.55806 17.7722 2.16403 26.052 2.16403C34.3423 2.16403 41.0539 4.55806 41.0539 7.50616C41.0643 9.6911 37.3635 11.5729 32.0632 12.3988ZM3.80535 16.1414C3.80535 13.2874 4.90305 10.6111 6.81618 8.31114C6.79527 8.46795 6.78482 8.63522 6.78482 8.79204C6.78482 12.3778 12.1792 15.4305 19.6958 16.5596C19.6854 16.8314 19.6854 17.1032 19.6854 17.375C19.6854 24.0448 21.5358 29.7006 24.0971 31.6555C12.7228 30.9551 3.80535 24.2748 3.80535 16.1414ZM28.0174 31.6451C30.5787 29.7006 32.4291 24.0448 32.4291 17.3645C32.4291 17.0927 32.4291 16.8209 32.4187 16.5491C39.9353 15.4305 45.3297 12.3778 45.3297 8.78158C45.3297 8.62477 45.3192 8.4575 45.2983 8.30068C47.2115 10.6006 48.3092 13.2769 48.3092 16.1309C48.3092 24.2748 39.3812 30.9551 28.0174 31.6451Z" fill="#1D1D1D"/>
</svg>
