<svg width="24" height="24" viewBox="0 0 24 24" fill="none" xmlns="http://www.w3.org/2000/svg">
<path d="M11.9995 1.0708C5.97315 1.0708 1.07031 5.97364 1.07031 12C1.07031 18.0264 5.97315 22.9292 11.9995 22.9292C18.0259 22.9292 22.9287 18.0264 22.9287 12C22.9287 5.97364 18.0259 1.0708 11.9995 1.0708ZM13.0924 17.3717V18.5575H10.9066V17.3772C8.35025 16.9761 7.62783 15.1891 7.62783 14.1858H9.81367C9.82569 14.3421 9.98745 15.2788 11.9995 15.2788C13.5077 15.2788 14.1854 14.6394 14.1854 14.1858C14.1854 13.8317 14.1854 13.0929 11.9995 13.0929C8.19615 13.0929 7.62783 11.0382 7.62783 9.81416C7.62783 8.40648 8.75245 6.99006 10.9066 6.6283V5.4556H13.0924V6.66764C14.9876 7.11574 15.7154 8.69282 15.7154 9.81416H14.6225L13.5296 9.83383C13.5143 9.41852 13.2946 8.72124 11.9995 8.72124C10.5798 8.72124 9.81367 9.28519 9.81367 9.81416C9.81367 10.2229 9.81367 10.9071 11.9995 10.9071C15.8029 10.9071 16.3712 12.9618 16.3712 14.1858C16.3712 15.5935 15.2466 17.0099 13.0924 17.3717Z" fill="#42D72E"/>
</svg>
