<svg width="24" height="24" viewBox="0 0 24 24" fill="none" xmlns="http://www.w3.org/2000/svg">
<path d="M5.39697 23.0041H19.7025C20.2862 23.0041 20.846 22.7722 21.2587 22.3595C21.6714 21.9467 21.9033 21.3869 21.9033 20.8032V3.19645C21.9033 2.61275 21.6714 2.05296 21.2587 1.64022C20.846 1.22748 20.2862 0.995605 19.7025 0.995605H4.29655C3.71285 0.995605 3.15305 1.22748 2.74032 1.64022C2.32758 2.05296 2.0957 2.61275 2.0957 3.19645V20.8032C2.0957 21.3869 2.32758 21.9467 2.74032 22.3595C3.15305 22.7722 3.71285 23.0041 4.29655 23.0041H5.39697ZM11.9995 4.29577C13.8119 4.29577 15.3008 5.78245 15.3008 7.59704C15.3008 9.41054 13.8119 10.8994 11.9995 10.8994C10.1871 10.8994 8.69824 9.41054 8.69824 7.59704C8.69824 5.78245 10.1871 4.29577 11.9995 4.29577ZM5.39697 17.7771C5.39697 15.3352 8.37362 12.8252 11.9995 12.8252C15.6254 12.8252 18.6021 15.3352 18.6021 17.7771V18.6024H5.39697V17.7771Z" fill="#42D72E"/>
</svg>
