<svg width="24" height="24" viewBox="0 0 24 24" fill="none" xmlns="http://www.w3.org/2000/svg">
<path d="M11.4434 22.6216C11.7635 22.7925 12.1652 22.7914 12.4854 22.6205C21.2087 17.9344 21.8282 8.77882 21.8206 6.17555C21.8195 5.96638 21.7575 5.76205 21.6423 5.58747C21.5271 5.4129 21.3635 5.27562 21.1716 5.19237L12.407 1.30978C12.2676 1.24797 12.1167 1.21612 11.9643 1.21631C11.8118 1.2165 11.661 1.24871 11.5218 1.31087L2.81806 5.19346C2.62883 5.27652 2.46746 5.41223 2.35318 5.58442C2.2389 5.75661 2.17653 5.95802 2.1735 6.16466C2.13648 8.75487 2.65801 17.93 11.4434 22.6216ZM8.37956 10.1431L10.8761 12.6396L15.5503 7.9655L17.0898 9.50504L10.8761 15.7187L6.84002 11.6826L8.37956 10.1431Z" fill="#42D72E"/>
</svg>
