<svg width="24" height="24" viewBox="0 0 24 24" fill="none" xmlns="http://www.w3.org/2000/svg">
<path d="M21.4241 9.94354L19.9544 5.5345C19.7412 4.89257 19.3312 4.33415 18.7825 3.9386C18.2338 3.54304 17.5744 3.33045 16.898 3.33106H7.10225C6.42584 3.33045 5.76645 3.54304 5.21776 3.9386C4.66907 4.33415 4.25899 4.89257 4.04579 5.5345L2.57611 9.94354C2.18529 10.1071 1.85154 10.3825 1.61681 10.7352C1.38207 11.0878 1.25684 11.502 1.25684 11.9257V17.2973C1.25684 18.0902 1.69086 18.7756 2.33116 19.1484V21.5946C2.33116 21.8795 2.44435 22.1528 2.64583 22.3543C2.8473 22.5558 3.12056 22.6689 3.40549 22.6689H4.47982C4.76475 22.6689 5.03801 22.5558 5.23948 22.3543C5.44096 22.1528 5.55414 21.8795 5.55414 21.5946V19.446H18.4461V21.5946C18.4461 21.8795 18.5593 22.1528 18.7607 22.3543C18.9622 22.5558 19.2355 22.6689 19.5204 22.6689H20.5947C20.8797 22.6689 21.1529 22.5558 21.3544 22.3543C21.5559 22.1528 21.6691 21.8795 21.6691 21.5946V19.1484C21.995 18.9615 22.2659 18.6919 22.4545 18.367C22.6431 18.042 22.7428 17.673 22.7434 17.2973V11.9257C22.7434 11.502 22.6181 11.0878 22.3834 10.7352C22.1487 10.3825 21.8149 10.1071 21.4241 9.94354ZM7.10225 5.47971H16.8969C17.3599 5.47971 17.7703 5.77408 17.9164 6.21455L19.1046 9.77702H4.89558L6.08271 6.21455C6.15399 6.00054 6.29083 5.81439 6.47382 5.6825C6.65681 5.5506 6.87668 5.47966 7.10225 5.47971ZM5.01698 16.223C4.80529 16.2229 4.59568 16.1811 4.40013 16.1001C4.20457 16.019 4.0269 15.9002 3.87726 15.7505C3.72762 15.6007 3.60894 15.423 3.52799 15.2274C3.44705 15.0317 3.40542 14.8221 3.40549 14.6104C3.40556 14.3987 3.44733 14.1891 3.5284 13.9936C3.60948 13.798 3.72828 13.6203 3.87802 13.4707C4.02776 13.3211 4.20551 13.2024 4.40112 13.1214C4.59673 13.0405 4.80636 12.9989 5.01806 12.9989C5.44559 12.9991 5.85556 13.169 6.15777 13.4715C6.45999 13.7739 6.62969 14.184 6.62955 14.6115C6.6294 15.039 6.45943 15.449 6.15701 15.7512C5.8546 16.0534 5.44452 16.2231 5.01698 16.223ZM18.9832 16.223C18.7715 16.2229 18.5619 16.1811 18.3664 16.1001C18.1708 16.019 17.9932 15.9002 17.8435 15.7505C17.6939 15.6007 17.5752 15.423 17.4942 15.2274C17.4133 15.0317 17.3717 14.8221 17.3717 14.6104C17.3718 14.3987 17.4136 14.1891 17.4947 13.9936C17.5757 13.798 17.6945 13.6203 17.8443 13.4707C17.994 13.3211 18.1718 13.2024 18.3674 13.1214C18.563 13.0405 18.7726 12.9989 18.9843 12.9989C19.4118 12.9991 19.8218 13.169 20.124 13.4715C20.4262 13.7739 20.5959 14.184 20.5958 14.6115C20.5957 15.039 20.4257 15.449 20.1233 15.7512C19.8209 16.0534 19.4108 16.2231 18.9832 16.223Z" fill="#42D72E"/>
</svg>
