<svg width="24" height="24" viewBox="0 0 24 24" fill="none" xmlns="http://www.w3.org/2000/svg">
<path d="M22.7341 8.95597C22.6664 8.75611 22.5416 8.58048 22.3751 8.45082C22.2086 8.32116 22.0077 8.24316 21.7974 8.22646L15.6451 7.7376L12.9828 1.84429C12.898 1.65448 12.7601 1.49326 12.5857 1.3801C12.4113 1.26693 12.2079 1.20666 12 1.20654C11.7921 1.20643 11.5886 1.26648 11.4141 1.37946C11.2396 1.49243 11.1015 1.6535 11.0165 1.84321L8.35425 7.7376L2.20194 8.22646C1.99524 8.24284 1.79762 8.31842 1.63275 8.44416C1.46787 8.5699 1.34271 8.74049 1.27224 8.9355C1.20177 9.13052 1.18898 9.3417 1.23539 9.5438C1.2818 9.74589 1.38545 9.93034 1.53394 10.0751L6.08045 14.5072L4.4725 21.4699C4.42368 21.6807 4.43933 21.9013 4.51742 22.103C4.59551 22.3048 4.73243 22.4784 4.91043 22.6014C5.08842 22.7243 5.29927 22.791 5.5156 22.7926C5.73194 22.7943 5.94377 22.7309 6.12362 22.6106L11.9997 18.6933L17.8757 22.6106C18.0595 22.7327 18.2763 22.7955 18.4969 22.7907C18.7175 22.7858 18.9313 22.7135 19.1096 22.5836C19.2879 22.4536 19.4221 22.2721 19.4942 22.0636C19.5663 21.855 19.5728 21.6294 19.5128 21.4171L17.539 14.5104L22.4341 10.1053C22.7546 9.81607 22.8722 9.36498 22.7341 8.95597Z" fill="#42D72E"/>
</svg>
