<svg width="24" height="24" viewBox="0 0 24 24" fill="none" xmlns="http://www.w3.org/2000/svg">
<path d="M12.8843 2.532C12.5383 1.878 11.4623 1.878 11.1163 2.532L2.11627 19.532C2.03556 19.6844 1.99564 19.8551 2.00038 20.0275C2.00512 20.1999 2.05437 20.3681 2.14333 20.5159C2.2323 20.6636 2.35796 20.7858 2.50812 20.8707C2.65827 20.9555 2.82781 21.0001 3.00027 21H21.0003C21.1727 21.0004 21.3423 20.956 21.4925 20.8713C21.6428 20.7866 21.7685 20.6644 21.8574 20.5167C21.9463 20.3689 21.9955 20.2006 22 20.0282C22.0045 19.8559 21.9643 19.6852 21.8833 19.533L12.8843 2.532ZM13.0003 18H11.0003V16H13.0003V18ZM11.0003 14V9H13.0003L13.0013 14H11.0003Z" fill="#D72E2E"/>
</svg>
