<svg width="72" height="30" viewBox="0 0 72 30" fill="none" xmlns="http://www.w3.org/2000/svg">
<g clip-path="url(#clip0_150_701)">
<path d="M71.2964 10.1587C70.9086 9.35997 70.3873 8.6306 69.7541 8.00084C69.627 7.87978 69.4907 7.76841 69.3463 7.6677C69.2376 7.58497 69.1243 7.50827 69.0069 7.43796H68.9826L68.952 7.42028C68.8251 7.35263 68.6946 7.29158 68.5612 7.23737H68.527C68.1919 7.10743 67.8349 7.04058 67.4745 7.04031H67.3251C66.9289 7.06506 66.5427 7.16933 66.1907 7.34782C65.7743 7.56475 65.3922 7.83977 65.0563 8.16431H65.0356L65.0149 8.18464C65.0018 8.1995 64.987 8.21284 64.9708 8.2244L64.9059 8.28449C64.6755 8.49745 64.4441 8.72808 64.1758 8.99759L63.9858 9.19199C63.7449 9.42863 63.506 9.66722 63.2692 9.90775C63.343 8.64767 63.4222 7.35754 63.4861 6.07714C63.4861 5.91366 63.5032 5.744 63.5167 5.58318C63.5645 5.02383 63.5762 4.46095 63.551 3.89983V3.76287C63.5167 3.12311 63.4627 2.15905 62.8127 1.33284C62.3355 0.717824 61.383 -0.00146484 59.5698 -0.00146484C59.1594 0.00125258 58.7497 0.0313661 58.3435 0.0886671C57.6762 0.181677 57.0181 0.330073 56.3763 0.532258C54.3587 1.18262 53.1937 2.19882 52.9011 3.57995C52.6868 4.60322 53.0713 5.49393 53.3225 6.08332L53.3765 6.21057C53.6042 6.7275 53.8662 7.22853 54.1615 7.711L54.4064 8.14134C55.0314 9.25701 55.6644 10.3684 56.3052 11.4753L55.3329 11.1422L55.0853 11.0556C54.7251 10.9257 54.4064 10.8153 54.1102 10.7216L54.0292 10.6986L53.9716 10.6818H53.9167C53.4691 10.5347 53.002 10.4528 52.5302 10.4388H52.4563C52.0841 10.4373 51.7153 10.5097 51.3724 10.6518C50.9924 10.8091 50.6521 11.0441 50.373 11.3419C50.2801 11.4496 50.1918 11.561 50.1083 11.6759L50.0885 11.7024L50.0678 11.7325C49.8961 11.9887 49.7559 12.264 49.6501 12.5525V12.5728C49.3617 13.4067 49.2181 14.2822 49.2251 15.1628C48.359 11.8288 45.5194 9.3643 42.1693 9.3643C40.9533 9.36813 39.7601 9.68828 38.7112 10.2921C38.1201 9.80146 37.3769 9.52206 36.6031 9.49959C35.8293 9.47712 35.0705 9.7129 34.4509 10.1684V8.41438C34.43 7.53081 34.0607 6.68963 33.4208 6.06782C32.7809 5.44601 31.9202 5.09205 31.0198 5.08039C30.1072 5.08366 29.2332 5.44227 28.5897 6.07748C27.9462 6.71268 27.5859 7.57255 27.5878 8.46829V12.1124C27.5022 12.0019 27.4105 11.896 27.3132 11.7952C26.3252 10.7795 25.0818 10.0377 23.7083 9.64442C22.3251 9.26246 20.8612 9.26368 19.4786 9.64796H19.4417C18.327 9.93457 17.2962 10.4736 16.432 11.2217C16.159 10.6587 15.7284 10.1835 15.1905 9.85179C14.6526 9.52006 14.0296 9.34546 13.3943 9.3484C13.072 9.3484 12.7524 9.39435 12.4436 9.48448C10.7447 9.98816 10.0649 11.6088 9.65077 12.5755C9.61296 12.6656 9.57875 12.7496 9.54273 12.8291C9.4401 13.0694 9.34196 13.2824 9.26364 13.4529C9.18468 13.6181 9.11201 13.7861 9.04576 13.9566C8.99804 14.0865 8.95753 14.1758 8.91071 14.2898C8.62717 13.7248 8.34057 13.1613 8.05091 12.5993L7.87985 12.2459C7.4522 11.3446 6.81027 9.99169 5.21401 9.51806C4.41823 9.27939 3.5605 9.33936 2.80722 9.68633C2.05395 10.0333 1.45884 10.6425 1.13737 11.3958C0.365802 13.1861 1.32374 14.766 1.83692 15.6135C2.20425 16.2143 2.67602 17.0096 3.11807 17.8376C3.30714 18.1707 3.37916 18.3112 3.79691 19.1074L3.85813 19.2178L4.38842 20.2181C4.51446 20.4479 4.65311 20.7112 4.81607 21.0187C4.98983 21.3519 5.187 21.7115 5.40398 22.1118C5.36706 22.1622 5.32925 22.2152 5.28513 22.2655L5.25452 22.3018L5.20681 22.2788C4.86801 22.1099 4.50856 21.9843 4.13723 21.905C3.87537 21.8454 3.60746 21.8152 3.33865 21.8149C2.75053 21.8147 2.17273 21.9665 1.66335 22.255C1.15397 22.5435 0.730985 22.9586 0.436927 23.4585C0.143161 23.962 -0.00762112 24.5336 0.000296505 25.1138C0.00821413 25.694 0.174542 26.2615 0.481943 26.7571C1.5002 28.4237 3.57633 29.0307 5.1906 29.0307C5.61825 29.0325 6.0459 28.9892 6.46365 28.9008C10.0892 28.1277 11.6585 24.6991 12.8037 22.1957L13.0342 21.6921C13.2703 21.1608 13.5161 20.6338 13.7715 20.1112L13.9993 19.6208C14.2309 20.3505 14.5706 21.0427 15.0077 21.6753C15.2778 22.0694 15.5794 22.4414 15.9116 22.786C16.2492 23.1244 16.6165 23.4328 17.0091 23.7094C17.4052 23.9798 17.8284 24.2131 18.2695 24.4057C18.7197 24.6125 19.1905 24.768 19.6758 24.8732C19.9729 24.9448 20.2754 24.9995 20.5797 25.0358C20.8588 25.0649 21.1379 25.0773 21.4188 25.0729H21.6664C22.6727 25.0739 23.6717 24.9047 24.6194 24.5727C25.0552 24.4314 25.4774 24.2502 25.8799 24.0328C26.5953 23.625 27.1827 23.032 27.5779 22.3186C27.6825 23.132 28.0846 23.8804 28.7095 24.4245C29.3344 24.9686 30.1395 25.2712 30.9748 25.2761C31.7103 25.2761 32.4252 25.042 33.014 24.609V25.6632C33.014 26.5563 33.3755 27.4129 34.0189 28.0444C34.6624 28.6759 35.5351 29.0307 36.4451 29.0307C37.3551 29.0307 38.2278 28.6759 38.8713 28.0444C39.5147 27.4129 39.8762 26.5563 39.8762 25.6632V24.7433C40.6001 24.9907 41.3617 25.1171 42.1288 25.1162C46.1577 25.1162 49.4358 21.5949 49.443 17.2668C49.5258 17.5292 49.6402 17.781 49.7824 18.0179C49.9985 18.3519 50.2812 18.6391 50.6152 18.8609C51.095 19.1751 51.6556 19.3497 52.2322 19.3645H52.4969C52.9455 19.354 53.3912 19.2914 53.8248 19.1781H53.8969L55.7749 18.761C55.4796 19.1613 55.1906 19.551 54.9124 19.938L54.7558 20.1545C54.5289 20.4611 54.3344 20.7315 54.1615 20.9913L54.1138 21.0647L54.0796 21.115L54.0634 21.138V21.1619C53.7941 21.5466 53.5833 21.9678 53.4377 22.4122C53.3188 22.7884 53.282 23.1849 53.3297 23.576C53.3819 23.9754 53.5214 24.3598 53.7366 24.7026V24.7194C53.8149 24.8396 53.9032 24.9562 53.9914 25.0526L54.0121 25.0729L54.0292 25.0959C54.1237 25.2063 54.2291 25.3097 54.3353 25.4096C54.4596 25.5306 54.5937 25.642 54.736 25.7436C55.4076 26.1942 56.1422 26.5477 56.9165 26.7934C57.5765 27.009 58.2616 27.138 58.9548 27.1769H59.1529C59.2663 27.178 59.3796 27.1724 59.4923 27.1601C59.6337 27.1486 59.7741 27.13 59.9128 27.1035H59.974C60.1162 27.0708 60.2576 27.0302 60.3953 26.9833H60.4161C60.7972 26.8444 61.1443 26.6285 61.4352 26.3498C61.7145 26.0705 61.933 25.7382 62.0771 25.3733C62.2415 24.9361 62.34 24.4777 62.3697 24.0125V23.9524C62.3717 23.9324 62.3717 23.9123 62.3697 23.8923V23.8155C62.3995 23.4823 62.4139 23.1757 62.4301 22.8152V22.3027L62.5462 22.5085L62.6786 22.7524C62.8622 23.0856 63.018 23.3657 63.1809 23.6325L63.2223 23.6988L63.2593 23.7589V23.7792L63.2773 23.8057C63.5374 24.2016 63.8553 24.5568 64.2208 24.8626C64.5134 25.1321 64.86 25.338 65.24 25.4661H65.2607C65.5551 25.5633 65.8639 25.6128 66.1745 25.6128C66.2708 25.6128 66.3671 25.6066 66.4626 25.596H66.4941C66.6399 25.5801 66.7849 25.5562 66.9289 25.5227H66.9893C67.1288 25.4873 67.2666 25.4423 67.4007 25.3901C67.561 25.3309 67.7158 25.2602 67.8662 25.1798C68.4742 24.8465 69.034 24.4349 69.5309 23.956C70.1174 23.4019 70.6206 22.7688 71.0254 22.0756C71.1815 21.7993 71.3005 21.5044 71.3792 21.1981V21.1415C71.4127 21.0032 71.4376 20.8631 71.4539 20.7218V20.6776C71.4922 20.2814 71.4459 19.8818 71.318 19.5041C71.184 19.131 70.9707 18.79 70.6923 18.5039C70.3632 18.1685 69.987 17.881 69.575 17.6503H69.5507L69.5237 17.6344L69.4696 17.6043L69.4012 17.5601C69.1302 17.4037 68.8277 17.227 68.5081 17.0741L68.2434 16.9336C67.8212 16.7024 67.3941 16.4799 66.9623 16.2665L68.8241 15.8432H68.8961C69.4249 15.7452 69.9347 15.5663 70.4069 15.313C70.9179 15.0518 71.3432 14.6542 71.634 14.166C71.8249 13.8258 71.941 13.4503 71.9734 13.0624C72.1229 11.8588 71.607 10.7949 71.2982 10.1587H71.2964Z" fill="white"/>
<path d="M57.2624 16.692L58.3833 16.4375C58.4067 16.4322 58.4463 16.4234 58.4932 16.4084C58.8028 16.3269 59.0681 16.1307 59.2331 15.861C59.3982 15.5913 59.4502 15.2693 59.3782 14.9627L59.3737 14.9433C59.3366 14.7964 59.2719 14.6577 59.1828 14.5342C59.0573 14.3778 58.9019 14.2469 58.7254 14.1489C58.5176 14.0327 58.3002 13.934 58.0754 13.8538L56.8465 13.4128C56.1568 13.161 55.4672 12.9162 54.7704 12.6767C54.3193 12.5195 53.9367 12.3807 53.6044 12.2791C53.5412 12.2619 53.4785 12.2431 53.4163 12.2226C53.0147 12.1024 52.732 12.052 52.4934 12.0502C52.334 12.0444 52.1752 12.0728 52.028 12.1333C51.8742 12.1986 51.7362 12.295 51.6228 12.4161C51.5666 12.4787 51.5137 12.5442 51.4644 12.6122C51.3685 12.7569 51.2894 12.9116 51.2285 13.0735C51.0002 13.7354 50.8864 14.4301 50.8918 15.1289C50.8963 15.7598 50.9134 16.5701 51.2672 17.1197C51.3527 17.2611 51.4671 17.383 51.603 17.4776C51.8551 17.6481 52.109 17.6711 52.3746 17.6897C52.7707 17.7171 53.1534 17.6225 53.536 17.535L57.2597 16.6912L57.2624 16.692ZM69.7678 10.852C69.4619 10.2217 69.0504 9.6461 68.5506 9.14923C68.486 9.08604 68.4168 9.02756 68.3435 8.97427C68.2758 8.92443 68.2055 8.87812 68.1329 8.83553C68.0581 8.79531 67.9811 8.75903 67.9024 8.72685C67.7469 8.66686 67.5803 8.63976 67.4135 8.64732C67.2541 8.65615 67.0984 8.70034 66.957 8.77368C66.7437 8.87795 66.5123 9.04584 66.2044 9.32596C66.1621 9.36749 66.1089 9.41432 66.0603 9.4585C65.8073 9.69267 65.5246 9.98162 65.1888 10.3174C64.6693 10.8326 64.1589 11.3504 63.6502 11.8726L62.7409 12.7987C62.5748 12.9676 62.4236 13.15 62.2889 13.3439C62.1736 13.508 62.0919 13.6926 62.0485 13.8873C62.0242 14.037 62.0278 14.1897 62.0593 14.338L62.0638 14.3574C62.1357 14.6637 62.3258 14.9306 62.5942 15.102C62.8625 15.2734 63.1881 15.3359 63.5025 15.2764C63.5404 15.2712 63.5779 15.2641 63.6151 15.2552L68.4606 14.156C68.8432 14.0694 69.2303 13.9898 69.5734 13.7937C69.8038 13.6638 70.0226 13.5339 70.173 13.2723C70.2531 13.1283 70.3015 12.9693 70.3152 12.8058C70.39 12.1572 70.0451 11.4211 69.7678 10.852ZM61.0933 12.8517C61.4444 12.4187 61.4444 11.7737 61.475 11.2452C61.5812 9.48236 61.692 7.71949 61.7811 5.95573C61.8144 5.28769 61.8874 4.62849 61.8468 3.95515C61.8135 3.40022 61.8099 2.76223 61.4525 2.30627C60.8223 1.50215 59.4772 1.56842 58.5598 1.6939C58.2768 1.73227 57.9958 1.78417 57.718 1.84942C57.4389 1.91481 57.1616 1.98639 56.8915 2.0721C56.011 2.35487 54.7731 2.87445 54.5642 3.87032C54.4453 4.43321 54.7262 5.00846 54.9423 5.52274C55.2061 6.14483 55.5653 6.70594 55.893 7.2918C56.7601 8.83907 57.6424 10.3775 58.522 11.9168C58.7858 12.3763 59.0712 12.9577 59.5798 13.1963C59.6141 13.2105 59.6483 13.2228 59.6834 13.2343C59.9112 13.3192 60.1606 13.3351 60.3973 13.2812L60.4397 13.2723C60.6593 13.2131 60.8574 13.0956 61.0131 12.9339C61.042 12.9074 61.0672 12.8809 61.0933 12.8517ZM60.6728 17.5713C60.5358 17.3821 60.3413 17.2403 60.1172 17.1661C59.893 17.092 59.6507 17.0894 59.425 17.1586C59.3719 17.1758 59.3201 17.1967 59.2701 17.2213C59.1928 17.2601 59.119 17.3053 59.0496 17.3565C58.8514 17.5098 58.6743 17.6877 58.5229 17.8858C58.4842 17.9344 58.4481 17.9989 58.4013 18.0414L57.6217 19.0929C57.1805 19.6832 56.7438 20.2743 56.3126 20.8743C56.0299 21.2623 55.7868 21.5901 55.5932 21.879C55.5572 21.9338 55.5194 21.9939 55.4852 22.0434C55.2538 22.3933 55.1233 22.6496 55.0558 22.8776C55.0053 23.029 54.9893 23.1895 55.0089 23.3477C55.0305 23.512 55.0873 23.6702 55.1746 23.8125C55.2214 23.8832 55.2718 23.9521 55.3258 24.0183C55.4425 24.1502 55.5739 24.2687 55.7175 24.3718C56.2559 24.7394 56.8447 25.0036 57.4641 25.2077C57.98 25.3756 58.5157 25.4764 59.0577 25.5064C59.1504 25.5108 59.2431 25.5091 59.335 25.5011C59.4201 25.4933 59.5048 25.4815 59.5888 25.4658C59.6729 25.4466 59.7558 25.423 59.8373 25.3951C59.9958 25.3368 60.1399 25.2465 60.2605 25.13C60.3748 25.0178 60.4631 24.8826 60.518 24.7332C60.608 24.5123 60.6674 24.2331 60.707 23.8178C60.7097 23.7586 60.7187 23.6879 60.725 23.6234C60.7557 23.2787 60.7701 22.8723 60.7917 22.3969C60.8304 21.6643 60.8601 20.9353 60.8835 20.2045L60.9339 18.9038C60.9456 18.6051 60.9357 18.2729 60.8511 17.9751C60.8139 17.832 60.7537 17.6957 60.6728 17.5713ZM69.4716 19.6063C69.3096 19.4305 69.0791 19.2564 68.7154 19.0408C68.6631 19.0116 68.601 18.9736 68.5443 18.94C68.2418 18.7607 67.8772 18.5733 67.4513 18.3462C66.7968 17.9928 66.1423 17.6499 65.4805 17.3088L64.3128 16.7009C64.2525 16.6832 64.1913 16.6408 64.1337 16.6134C63.9091 16.5008 63.6706 16.4174 63.4242 16.3651C63.3393 16.349 63.2532 16.3401 63.1667 16.3386C63.1107 16.3383 63.0548 16.3415 62.9993 16.3483C62.7655 16.3837 62.5491 16.4907 62.3809 16.654C62.2128 16.8173 62.1015 17.0285 62.0629 17.2576C62.0458 17.4034 62.0512 17.5509 62.08 17.6941C62.1367 17.9998 62.2754 18.3012 62.4194 18.5654L63.0425 19.7132C63.39 20.3601 63.7411 21.0033 64.1012 21.6449C64.3335 22.0628 64.5271 22.4207 64.7081 22.7176C64.7423 22.7733 64.781 22.8334 64.8107 22.8855C65.0313 23.2416 65.2077 23.4661 65.3869 23.6278C65.5062 23.7404 65.6495 23.8258 65.8064 23.8777C65.9633 23.9297 66.1299 23.9469 66.2944 23.9282C66.3801 23.918 66.4651 23.9032 66.5492 23.884C66.7214 23.8388 66.8879 23.7744 67.0453 23.6923C67.5192 23.4316 67.956 23.1107 68.3444 22.7379C68.8108 22.2873 69.2231 21.796 69.5437 21.234C69.5887 21.1544 69.6265 21.0723 69.6589 20.9866C69.6891 20.9081 69.7152 20.8281 69.7372 20.7471C69.7561 20.664 69.7705 20.581 69.7804 20.497C69.7966 20.332 69.7773 20.1656 69.7237 20.0084C69.6709 19.8575 69.5848 19.7199 69.4716 19.6054V19.6063Z" fill="#FF1A1A"/>
<path fill-rule="evenodd" clip-rule="evenodd" d="M29.259 8.44535C29.259 7.49985 30.0432 6.72754 30.9903 6.72754C31.924 6.72754 32.682 7.49985 32.7225 8.45949V21.8679C32.7225 22.8134 31.9375 23.5858 30.9903 23.5858C30.7614 23.5856 30.5348 23.541 30.3235 23.4544C30.1123 23.3678 29.9206 23.241 29.7596 23.0812C29.5986 22.9215 29.4715 22.732 29.3856 22.5238C29.2997 22.3155 29.2566 22.0926 29.259 21.8679V8.44535ZM27.6483 16.7278C27.6348 16.9937 27.5673 17.4868 27.2162 17.8465C26.8372 18.2326 26.3231 18.3254 26.0251 18.3254C24.7871 18.3325 23.5492 18.336 22.3113 18.3387C21.0733 18.3422 19.8354 18.3457 18.5975 18.3519C18.7055 18.685 18.9216 19.1914 19.4086 19.6571C19.7057 19.9372 19.9902 20.0962 20.1127 20.1634C20.2612 20.2562 20.7753 20.523 21.4109 20.523C22.088 20.523 22.6831 20.3092 23.2656 20.0167L23.3133 19.992C23.7185 19.7861 24.1353 19.574 24.5774 19.4971C25.0095 19.4308 25.4705 19.5104 25.8081 19.8037C26.2141 20.1501 26.3771 20.6556 26.2276 21.1752C26.0521 21.761 25.5515 22.2674 25.0239 22.5731C24.722 22.7465 24.405 22.8935 24.0768 23.0123C23.2394 23.3039 22.354 23.4396 21.4659 23.4126C21.2498 23.4126 21.0193 23.4126 20.7888 23.386C20.5457 23.3595 20.3027 23.3056 20.0722 23.2526C19.6985 23.1731 19.3352 23.0524 18.9891 22.893C18.6429 22.7423 18.3121 22.5594 18.0014 22.3469C17.6916 22.1283 17.402 21.8831 17.1362 21.6143C16.8719 21.3422 16.6319 21.0483 16.4187 20.736C15.6885 19.6438 15.35 18.2989 15.4175 16.9937C15.4716 15.716 15.9046 14.4374 16.6897 13.3991C16.7743 13.2683 16.8724 13.1578 16.9652 13.0536C17.0057 13.0076 17.0453 12.9634 17.0822 12.9193C18.051 11.7564 19.3456 11.3888 19.8795 11.2368L19.9092 11.228C20.9928 10.926 22.1406 10.926 23.2242 11.228C23.4817 11.2951 24.9294 11.7343 26.0521 12.9193C26.1061 12.9723 26.2556 13.1455 26.4446 13.3991C26.9248 14.0409 27.2776 14.7658 27.4845 15.5357L27.4863 15.5428C27.5673 15.8353 27.6483 16.2356 27.6483 16.7278ZM19.7066 14.531C19.1724 14.9574 18.8006 15.5484 18.6515 16.2082H24.5504C24.3912 15.549 24.0157 14.9594 23.4817 14.5301C22.9438 14.1068 22.2769 13.8725 21.5874 13.8648C20.9016 13.8714 20.2383 14.106 19.7057 14.5301L19.7066 14.531ZM42.139 11.0017C40.5967 11.0017 39.1895 11.6813 38.1884 12.7867V12.7461C38.1683 12.3021 37.9713 11.8837 37.6398 11.581C37.3084 11.2783 36.869 11.1156 36.4164 11.1279C35.9638 11.1401 35.5343 11.3265 35.2204 11.6467C34.9065 11.9669 34.7334 12.3954 34.7383 12.8397V25.6358C34.7373 25.8596 34.7813 26.0813 34.8679 26.2883C34.9545 26.4953 35.082 26.6835 35.243 26.8419C35.404 27.0003 35.5954 27.1259 35.8061 27.2115C36.0167 27.297 36.2426 27.3408 36.4706 27.3404C36.6985 27.3407 36.9242 27.2968 37.1348 27.2112C37.3453 27.1256 37.5366 27 37.6975 26.8416C37.8584 26.6831 37.9858 26.4951 38.0724 26.2881C38.1589 26.0812 38.2029 25.8595 38.2019 25.6358V21.6408C39.203 22.733 40.5967 23.4258 42.1525 23.4258C45.2513 23.4258 47.7677 20.6688 47.7677 17.2332C47.7542 13.7985 45.2378 11.0017 42.139 11.0017ZM41.3818 20.6423C39.6226 20.6423 38.1884 19.1375 38.1884 17.2606C38.1884 15.3696 39.6091 13.8648 41.3818 13.8648C43.1401 13.8648 44.5743 15.3696 44.5743 17.2606C44.5608 19.1375 43.1401 20.6423 41.3818 20.6423ZM12.8201 18.1257L12.252 19.3513C11.9945 19.8833 11.737 20.4294 11.494 20.9755L11.259 21.488C10.1768 23.8491 8.89384 26.652 6.09565 27.2467C4.74247 27.5401 2.69965 27.1407 1.94159 25.8885C1.18442 24.624 2.30711 23.1722 3.75482 23.5053C3.98351 23.5548 4.20768 23.6644 4.43456 23.7757C4.8118 23.9613 5.19443 24.1478 5.60858 24.0647C6.00112 23.9984 6.2442 23.7183 6.55571 23.3587C6.98786 22.8665 7.17783 22.3469 7.25886 22.0403L7.23905 21.9943C7.23278 21.9784 7.22587 21.9628 7.21834 21.9475C6.86632 21.3024 6.55841 20.7263 6.30182 20.2447C6.15757 19.9727 6.01202 19.7015 5.86517 19.4308L5.27546 18.3316C4.84331 17.5275 4.77128 17.3949 4.58042 17.0476C4.15964 16.2681 3.71742 15.5 3.25425 14.744C2.75367 13.9178 2.23959 12.9997 2.65914 12.0268C2.81683 11.6501 3.11295 11.3453 3.4888 11.1728C3.86466 11.0003 4.29283 10.9727 4.68845 11.0954C5.55906 11.3543 5.9453 12.1682 6.30542 12.9281C6.37115 13.0659 6.43507 13.202 6.50169 13.3319C7.0833 14.4639 7.6514 15.5958 8.2195 16.7278C8.26992 16.84 8.34554 16.9929 8.43918 17.1802C8.522 17.3463 8.61834 17.5398 8.72007 17.7528L8.87043 18.0603C8.92895 18.1805 8.98027 18.283 9.01808 18.3652C9.28187 17.7201 9.54927 17.0777 9.81576 16.4344C10.0832 15.792 10.3505 15.1496 10.6143 14.5036C10.6215 14.4683 10.6846 14.3304 10.78 14.1228C10.8601 13.9469 10.9628 13.7216 11.0744 13.4653L11.1887 13.1941C11.5399 12.3546 11.963 11.3446 12.9011 11.0689C13.2341 10.9741 13.5889 10.9833 13.9163 11.0954C14.2437 11.2076 14.5273 11.4169 14.7279 11.6945C14.9305 11.9737 15.0115 12.2936 15.025 12.6135C15.0358 13.3204 14.6883 14.0786 14.3894 14.729C14.3173 14.888 14.2471 15.04 14.1868 15.1832L14.1508 15.2609C14.068 15.4438 13.8429 15.9387 13.4557 16.7543C13.3162 17.0459 13.182 17.3393 13.0461 17.6353L12.8201 18.1257Z" fill="#1D1D1D"/>
</g>
<defs>
<clipPath id="clip0_150_701">
<rect width="72" height="29.0323" fill="white"/>
</clipPath>
</defs>
</svg>
