<svg width="87" height="31" viewBox="0 0 87 31" fill="none" xmlns="http://www.w3.org/2000/svg">
<g clip-path="url(#clip0_150_1246)">
<path d="M71.6653 0.350098C68.1113 0.350098 64.8499 1.59786 62.2856 3.68032C59.7212 1.59786 56.4598 0.350098 52.9059 0.350098C49.3519 0.350098 46.0905 1.59786 43.5262 3.68032C40.9618 1.59786 37.7004 0.350098 34.1465 0.350098C30.5925 0.350098 27.3311 1.59786 24.7668 3.68032C22.2024 1.59786 18.941 0.350098 15.3871 0.350098C7.16906 0.350098 0.5 7.01916 0.5 15.2372C0.5 23.4552 7.16906 30.1242 15.3871 30.1242C18.941 30.1242 22.2024 28.8765 24.7668 26.794C27.3311 28.8765 30.5925 30.1242 34.1465 30.1242C37.7004 30.1242 40.9618 28.8765 43.5262 26.794C46.0905 28.8765 49.3519 30.1242 52.9059 30.1242C56.4598 30.1242 59.7212 28.8765 62.2856 26.794C64.8499 28.8765 68.1113 30.1242 71.6653 30.1242C79.8833 30.1242 86.5524 23.4552 86.5524 15.2372C86.5524 7.01916 79.8833 0.350098 71.6653 0.350098ZM62.2856 21.9234C60.9346 20.0389 60.1429 17.7327 60.1429 15.2372C60.1429 12.7416 60.9432 10.4354 62.2856 8.55089C63.6366 10.4354 64.4283 12.7416 64.4283 15.2372C64.4283 17.7327 63.6366 20.0389 62.2856 21.9234ZM43.5262 21.9234C42.1752 20.0389 41.3835 17.7327 41.3835 15.2372C41.3835 12.7416 42.1752 10.4354 43.5262 8.55089C44.8772 10.4354 45.6689 12.7416 45.6689 15.2372C45.6689 17.7327 44.8772 20.0389 43.5262 21.9234ZM24.7668 21.9234C23.4157 20.0389 22.6241 17.7327 22.6241 15.2372C22.6241 12.7416 23.4243 10.4354 24.7668 8.54228C26.1178 10.4268 26.9095 12.7416 26.9095 15.2372C26.9095 17.7327 26.1178 20.0389 24.7668 21.9234ZM3.86465 15.2372C3.86465 8.86928 9.01918 3.71474 15.3871 3.71474C18.0289 3.71474 20.4555 4.60108 22.4003 6.09839C20.4383 8.61973 19.2594 11.7865 19.2594 15.2372C19.2594 18.6879 20.4383 21.8546 22.4003 24.3759C20.4555 25.8646 18.0289 26.7596 15.3871 26.7596C9.01918 26.7596 3.86465 21.605 3.86465 15.2372ZM27.1332 24.3759C29.0952 21.8546 30.2741 18.6879 30.2741 15.2372C30.2741 11.7865 29.0952 8.61973 27.1332 6.09839C29.078 4.60108 31.5047 3.71474 34.1465 3.71474C36.7883 3.71474 39.215 4.60108 41.1597 6.09839C39.1977 8.61973 38.0188 11.7865 38.0188 15.2372C38.0188 18.6879 39.1977 21.8546 41.1597 24.3759C39.215 25.8646 36.7883 26.7596 34.1465 26.7596C31.5047 26.7596 29.078 25.8732 27.1332 24.3759ZM45.8926 24.3759C47.8632 21.8546 49.0335 18.6879 49.0335 15.2372C49.0335 11.7865 47.8632 8.61973 45.8926 6.09839C47.8374 4.60969 50.2641 3.71474 52.9059 3.71474C55.5477 3.71474 57.9744 4.60108 59.9191 6.09839C57.9572 8.61973 56.7782 11.7865 56.7782 15.2372C56.7782 18.6879 57.9486 21.8546 59.9191 24.3759C57.9744 25.8646 55.5477 26.7596 52.9059 26.7596C50.2641 26.7596 47.8374 25.8732 45.8926 24.3759ZM71.6653 26.7596C69.0235 26.7596 66.5968 25.8732 64.652 24.3759C66.6226 21.8546 67.7929 18.6879 67.7929 15.2372C67.7929 11.7865 66.6226 8.61973 64.652 6.09839C66.5968 4.60108 69.0235 3.71474 71.6653 3.71474C78.0332 3.71474 83.1877 8.87789 83.1877 15.2372C83.1877 21.605 78.0332 26.7596 71.6653 26.7596Z" fill="#1D1D1D"/>
</g>
<defs>
<clipPath id="clip0_150_1246">
<rect width="87" height="31" fill="white"/>
</clipPath>
</defs>
</svg>
