<svg width="48" height="48" viewBox="0 0 48 48" fill="none" xmlns="http://www.w3.org/2000/svg">
<g clip-path="url(#clip0_150_1228)">
<path fill-rule="evenodd" clip-rule="evenodd" d="M46.4176 23.8781C46.4176 11.4998 36.3841 1.46631 24.0058 1.46631C11.6274 1.46631 1.5918 11.4998 1.5918 23.8781C1.5918 36.2565 11.6264 46.29 24.0047 46.29C36.3831 46.29 46.4165 36.2565 46.4165 23.8781H46.4176Z" fill="white" stroke="#221F1F" stroke-width="2" stroke-linecap="round" stroke-linejoin="round"/>
<path fill-rule="evenodd" clip-rule="evenodd" d="M45.8765 23.8782C45.8765 11.7989 36.084 2.00635 24.0058 2.00635C11.9275 2.00635 2.13281 11.7978 2.13281 23.8782C2.13281 35.9586 11.9253 45.7501 24.0047 45.7501C36.084 45.7501 45.8755 35.9575 45.8755 23.8782H45.8765Z" fill="#1D1D1D"/>
<path fill-rule="evenodd" clip-rule="evenodd" d="M14.5399 11.5841C14.456 11 14.1043 10.5095 13.5643 10.2632C13.0233 10.0169 12.393 10.1094 11.9154 10.4482C11.8767 10.4762 11.8401 10.5095 11.8035 10.5385C11.882 10.2686 11.9068 9.99535 11.839 9.71891C11.7734 9.44892 11.6314 9.19938 11.4324 9.00577C11.0269 8.61101 10.4127 8.48086 9.88245 8.67877C9.6329 8.77235 9.41025 8.93262 9.24352 9.14022C9.14887 9.25854 9.05421 9.37686 8.95956 9.49625C8.46369 10.1147 7.9689 10.7343 7.47304 11.3528C7.04709 11.8842 6.62221 12.4155 6.19626 12.9469C6.1683 12.9824 6.14033 13.0168 6.11236 13.0523C6.11021 13.0544 6.16722 13.0975 6.17045 13.1007C6.33609 13.233 6.50067 13.3653 6.66524 13.4976C7.2891 13.9978 7.91404 14.4969 8.53791 14.997C9.15532 15.4918 9.77381 15.9866 10.3923 16.4825C10.5504 16.6083 10.7075 16.7342 10.8656 16.8611C10.872 16.8665 10.9086 16.903 10.9151 16.8955C10.9462 16.8557 10.9774 16.817 11.0086 16.7783C11.4324 16.248 11.8573 15.7177 12.2811 15.1885C12.7899 14.5539 13.2976 13.9182 13.8063 13.2835C14.0688 12.9555 14.3592 12.6468 14.484 12.2359C14.5485 12.024 14.5582 11.8035 14.5378 11.5851L14.5399 11.5841ZM9.06497 13.375C8.80789 13.1695 8.55082 12.963 8.29374 12.7576C8.19586 12.679 8.09798 12.6005 7.99902 12.522C7.99687 12.5198 8.10013 12.3929 8.10766 12.3843C8.58631 11.7863 9.06604 11.1871 9.5447 10.5891C9.67055 10.431 9.78457 10.2632 9.97818 10.1825C10.2428 10.0739 10.5547 10.1438 10.7462 10.3546C10.9011 10.5256 10.9527 10.759 10.9021 10.9817C10.8451 11.1796 10.7042 11.3259 10.5784 11.4829C10.3267 11.7981 10.0739 12.1133 9.82221 12.4284C9.56944 12.7447 9.31667 13.0598 9.06389 13.375H9.06497ZM12.8652 12.6382C12.7028 12.8415 12.5403 13.0448 12.3779 13.2481C11.9315 13.8063 11.4841 14.3646 11.0377 14.9217C11.0355 14.9239 11.0237 14.9432 11.0205 14.94C10.9979 14.9217 10.9742 14.9034 10.9516 14.8852C10.8301 14.7873 10.7085 14.6905 10.587 14.5937C10.3762 14.4248 10.1653 14.2559 9.95452 14.0881C10.36 13.5815 10.7645 13.0759 11.17 12.5693C11.3679 12.323 11.5647 12.0756 11.7616 11.8293C11.9025 11.6529 12.081 11.527 12.3166 11.5195C12.5984 11.5098 12.8437 11.6744 12.9631 11.9239C13.0631 12.166 13.0297 12.4327 12.8652 12.6382Z" fill="white"/>
<path fill-rule="evenodd" clip-rule="evenodd" d="M37.6744 23.8782C37.6744 16.3283 31.554 10.208 24.0042 10.208C16.4543 10.208 10.334 16.3283 10.334 23.8782C10.334 31.428 16.4543 37.5484 24.0042 37.5484C31.554 37.5484 37.6744 31.428 37.6744 23.8782Z" fill="white"/>
<path fill-rule="evenodd" clip-rule="evenodd" d="M24.0047 10.9009C16.9206 11.0848 11.2112 16.7943 11.0283 23.8773H24.0047V10.9009Z" fill="#0066B1"/>
<path fill-rule="evenodd" clip-rule="evenodd" d="M24.0039 36.8549C31.0891 36.671 36.7975 30.9615 36.9814 23.8774H24.0039V36.8549Z" fill="#0066B1"/>
<path fill-rule="evenodd" clip-rule="evenodd" d="M38.5871 8.91818L37.448 7.86084L33.75 12.7184L34.8891 13.7768L38.9453 11.916L36.2422 15.4666L37.0253 16.8101L42.5745 14.263L41.7914 12.9206L38.5893 14.3899L40.8653 11.3997L39.8693 10.1552L36.4531 11.7213L38.5871 8.91818Z" fill="white"/>
<path fill-rule="evenodd" clip-rule="evenodd" d="M21.993 5.19468L23.4354 9.29606H24.5745L26.0169 5.19468L26.1697 9.29606L27.7638 9.5241L27.5357 3.37257L25.4856 3.14453L24.0055 7.47394L22.5233 3.14453L20.4732 3.37257L20.2451 9.5241L21.8414 9.29606L21.993 5.19468Z" fill="white"/>
</g>
<defs>
<clipPath id="clip0_150_1228">
<rect width="48" height="48" fill="white"/>
</clipPath>
</defs>
</svg>
