<svg width="24" height="24" viewBox="0 0 24 24" fill="none" xmlns="http://www.w3.org/2000/svg">
<path d="M21.5116 6.11216L17.6216 10.0012L14.0866 6.46516L17.9756 2.57616C16.789 2.08834 15.4846 1.96253 14.2267 2.21458C12.9687 2.46662 11.8134 3.08523 10.9063 3.99253C9.99926 4.89983 9.38091 6.05524 9.12917 7.31326C8.87743 8.57129 9.00354 9.87567 9.49164 11.0622L3.21564 17.3372C3.02817 17.5247 2.92285 17.779 2.92285 18.0442C2.92285 18.3093 3.02817 18.5636 3.21564 18.7512L5.33764 20.8732C5.52517 21.0606 5.77947 21.1659 6.04464 21.1659C6.3098 21.1659 6.56411 21.0606 6.75164 20.8732L13.0266 14.5972C14.2132 15.0858 15.5179 15.2122 16.7762 14.9606C18.0345 14.709 19.1902 14.0905 20.0976 13.1832C21.005 12.2757 21.6235 11.12 21.8751 9.86172C22.1267 8.60339 22.0002 7.29874 21.5116 6.11216Z" fill="#FFBB29"/>
</svg>
