<svg width="195" height="29" viewBox="0 0 195 29" fill="none" xmlns="http://www.w3.org/2000/svg">
<g clip-path="url(#clip0_150_1278)">
<path d="M121.727 14.4796V14.7918V21.3343C121.727 21.4165 121.683 21.4819 121.626 21.4843C119.632 21.5351 115.228 21.5593 110.783 21.5424C108.044 21.5315 105.477 21.5049 103.707 21.4129C101.596 21.3052 100.779 21.212 99.9419 20.7715C99.0257 20.2898 98.0382 19.6061 97.3835 18.984C96.834 18.4612 96.6683 17.9856 96.6259 16.9569C96.6005 16.3107 96.5932 15.3134 96.5908 14.5679C96.5932 13.8237 96.6005 12.8264 96.6259 12.1802C96.6683 11.1515 96.834 10.6759 97.3835 10.1531C98.0382 9.52983 99.0257 8.84726 99.9419 8.3656C100.779 7.92508 101.596 7.8319 103.707 7.72298C105.477 7.63221 108.044 7.60559 110.783 7.59469C115.228 7.57775 119.529 7.60195 121.524 7.65278C121.579 7.65399 121.624 7.72055 121.624 7.80164V10.6529C121.624 10.7352 121.579 10.8018 121.522 10.8018C118.11 10.8005 111.921 10.7993 110.43 10.8066C108.583 10.8139 106.941 10.8344 105.592 10.8828C104.69 10.9143 104.323 11.0039 103.822 11.2713C103.582 11.3984 103.333 11.5594 103.124 11.7324C102.69 12.0931 102.598 12.2867 102.569 13.1423C102.556 13.5272 102.55 14.1432 102.55 14.5679C102.55 14.9939 102.556 15.6099 102.569 15.9948C102.598 16.8504 102.69 17.044 103.124 17.4035C103.333 17.5777 103.582 17.7375 103.822 17.8658C104.323 18.132 104.69 18.2216 105.592 18.2543C106.941 18.3027 108.583 18.3232 110.43 18.3305C112.362 18.339 113.945 18.3341 115.283 18.3341C115.436 18.3353 115.468 18.2409 115.468 18.1187V17.8016C115.468 17.6491 115.414 17.5063 115.325 17.424L112.348 14.6757C112.284 14.6151 112.285 14.4772 112.351 14.4215L112.63 14.1879C112.919 13.9459 113.057 13.8951 113.383 13.8939C114.963 13.8878 120.678 13.8648 121.323 13.883C121.686 13.8939 121.727 13.9519 121.727 14.4796ZM152.487 18.3765V21.2943C152.487 21.3766 152.441 21.4432 152.384 21.4432H128.625C128.26 21.4432 128.212 21.3754 128.212 20.6977V8.14897C128.212 7.77017 128.26 7.70119 128.625 7.70119H152.126C152.183 7.70119 152.229 7.76896 152.229 7.85126V10.4702C152.229 10.5525 152.183 10.619 152.126 10.619L134.638 10.6892C134.273 10.6904 134.227 10.757 134.227 11.2846V12.7805C134.227 12.8628 134.273 12.9293 134.33 12.9293L148.613 13.0031C148.67 13.0031 148.716 13.0697 148.716 13.152V15.6947C148.716 15.7769 148.67 15.8435 148.613 15.8447L134.33 15.9173C134.273 15.9185 134.227 15.9851 134.227 16.0662V17.562C134.227 18.0897 134.273 18.1562 134.638 18.1574L152.384 18.2276C152.441 18.2276 152.487 18.2942 152.487 18.3765ZM52.3575 15.9464C52.3272 16.8274 52.2328 17.0271 51.7863 17.3986C51.5708 17.5765 51.3143 17.7423 51.0674 17.8742C50.5506 18.149 50.173 18.2409 49.2436 18.2736C47.8531 18.3232 47.4609 18.345 45.5585 18.3523C43.656 18.345 43.2639 18.3232 41.8734 18.2736C40.944 18.2409 40.5664 18.149 40.0508 17.8742C39.8027 17.7423 39.5462 17.5765 39.3307 17.3986C38.8842 17.0271 38.7898 16.8274 38.7595 15.9464C38.7462 15.5494 38.7402 14.9153 38.7389 14.4772C38.7402 14.0391 38.7462 13.4037 38.7595 13.008C38.7898 12.1257 38.8842 11.926 39.3307 11.5557C39.5462 11.3766 39.8027 11.212 40.0508 11.0801C40.5664 10.8054 40.944 10.7134 41.8734 10.6795C43.2639 10.6299 43.656 10.6093 45.5585 10.6009C47.4609 10.6093 47.8531 10.6299 49.2436 10.6795C50.173 10.7134 50.5506 10.8054 51.0674 11.0801C51.3143 11.212 51.5708 11.3766 51.7863 11.5557C52.2328 11.926 52.3272 12.1257 52.3575 13.008C52.372 13.4037 52.3768 14.0391 52.3781 14.4772C52.3768 14.9153 52.372 15.5494 52.3575 15.9464ZM58.48 12.0168C58.4364 10.9567 58.2657 10.4665 57.7006 9.92799C57.0253 9.28657 56.0087 8.58223 55.0647 8.08604C54.2006 7.63221 53.3607 7.5366 51.186 7.42526C49.361 7.33087 48.3795 7.30303 45.5585 7.29214C42.7375 7.30303 41.756 7.33087 39.9322 7.42526C37.7562 7.5366 36.9164 7.63221 36.0535 8.08604C35.1095 8.58223 34.0917 9.28657 33.4176 9.92799C32.8513 10.4665 32.6806 10.9567 32.637 12.0168C32.6104 12.6824 32.6032 13.7099 32.6007 14.4772C32.6032 15.2445 32.6104 16.2719 32.637 16.9375C32.6806 17.9965 32.8513 18.4866 33.4176 19.0252C34.0917 19.6678 35.1095 20.3709 36.0535 20.8671C36.9164 21.3209 37.7562 21.4165 39.9322 21.5279C41.756 21.6223 42.7375 21.6501 45.5585 21.661C48.3795 21.6501 49.361 21.6223 51.186 21.5279C53.3607 21.4165 54.2006 21.3209 55.0647 20.8671C56.0087 20.3709 57.0253 19.6678 57.7006 19.0252C58.2657 18.4866 58.4364 17.9965 58.48 16.9375C58.5066 16.2719 58.5138 15.2445 58.5163 14.4772C58.5138 13.7099 58.5066 12.6824 58.48 12.0168ZM19.9322 15.8834C19.902 16.7742 19.8064 16.9751 19.3549 17.3502C19.1371 17.5305 18.8781 17.6976 18.6288 17.8307C18.1072 18.1078 17.726 18.201 16.7869 18.2349C15.383 18.2845 13.6754 18.3063 11.7536 18.3136C9.74343 18.3232 7.7381 18.3172 6.34636 18.3172C6.28706 18.3172 6.23986 18.2482 6.23986 18.1623V14.3997V10.6372C6.23986 10.5512 6.28706 10.4823 6.34636 10.4823C7.7381 10.4823 9.74343 10.4774 11.7536 10.4859C13.6754 10.4944 15.383 10.5149 16.7869 10.5658C17.726 10.5984 18.1072 10.6916 18.6288 10.9688C18.8781 11.1019 19.1371 11.2689 19.3549 11.4492C19.8064 11.8244 19.902 12.0253 19.9322 12.916C19.9467 13.3166 19.9516 13.9568 19.9528 14.3997C19.9516 14.8427 19.9467 15.4829 19.9322 15.8834ZM26.1152 11.9152C26.0716 10.8453 25.8986 10.3503 25.3274 9.80575C24.646 9.15829 23.6185 8.44669 22.6649 7.94566C21.7935 7.4882 20.9452 7.39138 18.7486 7.27883C16.9067 7.18322 14.2357 7.15539 11.3869 7.1445C6.76146 7.12634 2.1796 7.15176 0.104077 7.205C0.0459906 7.20621 0 7.2752 0 7.35991V14.3997V21.4395C0 21.5243 0.0459906 21.5932 0.104077 21.5944C2.1796 21.6477 6.76146 21.6731 11.3869 21.655C14.2357 21.6441 16.9067 21.6162 18.7486 21.5218C20.9452 21.4081 21.7935 21.3113 22.6649 20.8538C23.6185 20.3528 24.646 19.6412 25.3274 18.9937C25.8986 18.4503 26.0716 17.9553 26.1152 16.8843C26.1418 16.2126 26.1503 15.1743 26.1515 14.3997C26.1503 13.6252 26.1418 12.5868 26.1152 11.9152ZM84.1692 15.9948C84.1401 16.8504 84.0481 17.044 83.6137 17.4035C83.4043 17.5777 83.1562 17.7375 82.9154 17.8658C82.4144 18.132 82.0477 18.2216 81.146 18.2543C79.7967 18.3027 78.1556 18.3232 76.3076 18.3305C74.3761 18.339 72.4482 18.3341 71.111 18.3341C71.0529 18.3341 71.0081 18.2676 71.0081 18.1853V14.5679V10.9518C71.0081 10.8695 71.0529 10.803 71.111 10.803C72.4482 10.803 74.3761 10.7981 76.3076 10.8066C78.1556 10.8139 79.7967 10.8344 81.146 10.8828C82.0477 10.9143 82.4144 11.0039 82.9154 11.2713C83.1562 11.3984 83.4043 11.5594 83.6137 11.7324C84.0481 12.0931 84.1401 12.2867 84.1692 13.1423C84.1825 13.5272 84.1873 14.1432 84.1885 14.5679C84.1873 14.9939 84.1825 15.6099 84.1692 15.9948ZM90.1113 12.1802C90.0702 11.1515 89.9044 10.6759 89.3549 10.1531C88.7002 9.52983 87.7127 8.84726 86.7953 8.3656C85.9578 7.92508 85.1422 7.8319 83.0303 7.72298C81.2598 7.63221 78.6942 7.60559 75.9554 7.59469C71.5091 7.57775 67.1051 7.60195 65.1107 7.65278C65.055 7.65399 65.0103 7.72055 65.0103 7.80164V14.5679V21.3343C65.0103 21.4165 65.055 21.4819 65.1107 21.4843C67.1051 21.5351 71.5091 21.5593 75.9554 21.5424C78.6942 21.5315 81.2598 21.5049 83.0303 21.4129C85.1422 21.3052 85.9578 21.212 86.7953 20.7715C87.7127 20.2898 88.7002 19.6061 89.3549 18.984C89.9044 18.4612 90.0702 17.9856 90.1113 16.9569C90.1379 16.3107 90.1452 15.3134 90.1464 14.5679C90.1452 13.8237 90.1379 12.8264 90.1113 12.1802Z" fill="#1D1D1D"/>
<path d="M194.225 26.7945C190.866 24.3071 187.764 20.8532 185.257 16.8055L184.934 16.304L182.81 17.5793L182.849 17.6592C183.973 19.9822 184.492 21.3968 184.019 22.2183C183.545 23.0437 182.044 23.3071 179.44 23.5045L179.352 23.5113L179.3 25.9717L179.901 26.0003C184.691 26.126 189.262 27.0586 193.117 28.6975L193.355 28.7996L193.497 28.582C193.651 28.3429 193.791 28.1169 193.923 27.8909C194.054 27.6668 194.182 27.4343 194.314 27.1802L194.434 26.9491L194.225 26.7945ZM184.832 22.6919C185.481 21.5796 185.031 20.1052 184.025 17.9431L184.632 17.5786C187.053 21.4206 190.022 24.7496 193.226 27.2157C193.186 27.2856 193.147 27.3544 193.107 27.4222L193.106 27.4229C193.067 27.4914 193.026 27.5603 192.984 27.63C189.227 26.114 184.832 25.2316 180.26 25.0758L180.276 24.3741C182.67 24.1559 184.185 23.8045 184.832 22.6919ZM176.845 23.5047C174.242 23.3073 172.741 23.0437 172.266 22.2185C171.794 21.397 172.313 19.9824 173.437 17.6594L173.476 17.5795L171.353 16.3042L171.027 16.807C168.522 20.8534 165.421 24.3071 162.061 26.7945L161.852 26.9491L161.972 27.1802C162.103 27.43 162.23 27.6624 162.363 27.8911C162.489 28.1068 162.628 28.333 162.789 28.582L162.929 28.8L163.169 28.6975C167.025 27.0586 171.595 26.126 176.386 26.0003L176.987 25.9715L176.933 23.5115L176.845 23.5047ZM172.262 17.9421C171.255 20.1046 170.805 21.5796 171.454 22.6919C172.102 23.8047 173.617 24.1561 176.01 24.3743L176.025 25.0749C171.453 25.2318 167.058 26.1148 163.302 27.6302C163.26 27.5601 163.219 27.4913 163.179 27.4235L163.166 27.4019C163.131 27.3398 163.096 27.278 163.06 27.2148C166.265 24.7485 169.233 21.4196 171.655 17.5786L172.262 17.9421ZM181.389 15.0208L181.44 15.0994L183.521 13.8803L183.259 13.339C181.079 9.05024 179.678 4.53964 179.206 0.294502L179.176 0.0323535L178.922 0.0196399C178.388 -0.00645166 177.9 -0.00664141 177.362 0.0196399L177.111 0.0323535L177.081 0.294787C176.609 4.53632 175.207 9.04692 173.026 13.3406L172.764 13.8802L174.847 15.0994L174.897 15.0208C176.268 12.8832 177.238 11.6455 178.143 11.6455C179.048 11.6455 180.019 12.8832 181.389 15.0208ZM173.976 13.4954C176.026 9.38611 177.387 5.05445 177.917 0.9577C178.069 0.955044 178.217 0.955044 178.37 0.9577C178.897 5.05103 180.259 9.3827 182.311 13.4954L181.722 13.8408C180.399 11.8432 179.383 10.6888 178.143 10.6888C176.904 10.6888 175.888 11.8432 174.564 13.8408L173.976 13.4954Z" fill="#D91A15"/>
</g>
<defs>
<clipPath id="clip0_150_1278">
<rect width="194.435" height="28.8" fill="white"/>
</clipPath>
</defs>
</svg>
