<svg width="36" height="36" viewBox="0 0 36 36" fill="none" xmlns="http://www.w3.org/2000/svg">
<path d="M31.158 15.2325L29.106 9.0765C28.8083 8.18022 28.2358 7.40055 27.4697 6.84826C26.7036 6.29597 25.7829 5.99916 24.8385 6H11.1615C10.2171 5.99916 9.29642 6.29597 8.53033 6.84826C7.76423 7.40055 7.19167 8.18022 6.894 9.0765L4.842 15.2325C4.29633 15.4608 3.83034 15.8454 3.5026 16.3378C3.17486 16.8302 3 17.4085 3 18V25.5C3 26.607 3.606 27.564 4.5 28.0845V31.5C4.5 31.8978 4.65804 32.2794 4.93934 32.5607C5.22064 32.842 5.60218 33 6 33H7.5C7.89783 33 8.27936 32.842 8.56066 32.5607C8.84196 32.2794 9 31.8978 9 31.5V28.5H27V31.5C27 31.8978 27.158 32.2794 27.4393 32.5607C27.7206 32.842 28.1022 33 28.5 33H30C30.3978 33 30.7794 32.842 31.0607 32.5607C31.342 32.2794 31.5 31.8978 31.5 31.5V28.0845C31.9551 27.8235 32.3334 27.4472 32.5967 26.9935C32.86 26.5397 32.9991 26.0246 33 25.5V18C33 17.4085 32.8251 16.8302 32.4974 16.3378C32.1697 15.8454 31.7037 15.4608 31.158 15.2325ZM11.1615 9H24.837C25.4835 9 26.0565 9.411 26.2605 10.026L27.9195 15H8.0805L9.738 10.026C9.83752 9.72719 10.0286 9.46729 10.2841 9.28314C10.5396 9.09899 10.8466 8.99993 11.1615 9ZM8.25 24C7.95443 23.9999 7.66177 23.9416 7.38873 23.8284C7.1157 23.7152 6.86763 23.5493 6.6587 23.3402C6.44977 23.1312 6.28406 22.883 6.17104 22.6099C6.05802 22.3368 5.9999 22.0441 6 21.7485C6.0001 21.4529 6.05841 21.1603 6.17162 20.8872C6.28482 20.6142 6.45069 20.3661 6.65976 20.1572C6.86883 19.9483 7.11701 19.7826 7.39012 19.6695C7.66323 19.5565 7.95593 19.4984 8.2515 19.4985C8.84844 19.4987 9.42084 19.736 9.8428 20.1583C10.2648 20.5805 10.5017 21.1531 10.5015 21.75C10.5013 22.3469 10.264 22.9193 9.84174 23.3413C9.4195 23.7633 8.84694 24.0002 8.25 24ZM27.75 24C27.4544 23.9999 27.1618 23.9416 26.8887 23.8284C26.6157 23.7152 26.3676 23.5493 26.1587 23.3402C25.9498 23.1312 25.7841 22.883 25.671 22.6099C25.558 22.3368 25.4999 22.0441 25.5 21.7485C25.5001 21.4529 25.5584 21.1603 25.6716 20.8872C25.7848 20.6142 25.9507 20.3661 26.1598 20.1572C26.3688 19.9483 26.617 19.7826 26.8901 19.6695C27.1632 19.5565 27.4559 19.4984 27.7515 19.4985C28.3484 19.4987 28.9208 19.736 29.3428 20.1583C29.7648 20.5805 30.0017 21.1531 30.0015 21.75C30.0013 22.3469 29.764 22.9193 29.3417 23.3413C28.9195 23.7633 28.3469 24.0002 27.75 24Z" fill="#FFBB29"/>
</svg>
