<svg width="36" height="36" viewBox="0 0 36 36" fill="none" xmlns="http://www.w3.org/2000/svg">
<path d="M17.1651 33.9324C17.6452 34.1888 18.2479 34.1872 18.728 33.9307C31.813 26.9016 32.7423 13.1682 32.7308 9.26332C32.7292 8.94956 32.6363 8.64307 32.4634 8.38121C32.2906 8.11934 32.0453 7.91343 31.7575 7.78856L18.6104 1.96467C18.4013 1.87195 18.1751 1.82418 17.9464 1.82446C17.7177 1.82475 17.4915 1.87307 17.2827 1.9663L4.22709 7.7902C3.94324 7.91478 3.70119 8.11835 3.52977 8.37663C3.35835 8.63491 3.2648 8.93703 3.26025 9.24698C3.20472 13.1323 3.98701 26.895 17.1651 33.9324ZM12.5693 15.2146L16.3142 18.9595L23.3254 11.9483L25.6347 14.2576L16.3142 23.5781L10.26 17.5239L12.5693 15.2146Z" fill="#FFBB29"/>
</svg>
