<svg width="100" height="100" viewBox="0 0 100 100" fill="none" xmlns="http://www.w3.org/2000/svg">
<g clip-path="url(#clip0_257_342)">
<path d="M87.259 52.0047C87.259 71.9567 71.0847 88.131 51.1327 88.131C31.1806 88.131 15.0063 71.9567 15.0063 52.0047C15.0063 32.0527 31.1806 15.8784 51.1327 15.8784C71.0847 15.8784 87.259 32.0527 87.259 52.0047Z" fill="white"/>
<path d="M49.9624 99.9249C43.2186 99.9249 36.6747 98.6033 30.5139 95.9977C24.5642 93.4808 19.2209 89.879 14.6334 85.2915C10.0458 80.704 6.44328 75.3606 3.92712 69.411C1.32156 63.2502 0 56.7062 0 49.9624C0 43.2186 1.32156 36.6747 3.92712 30.5139C6.44403 24.5642 10.0458 19.2209 14.6334 14.6334C19.2209 10.0458 24.5642 6.44328 30.5139 3.92712C36.6747 1.32156 43.2186 0 49.9624 0C56.7062 0 63.2502 1.32156 69.411 3.92712C75.3606 6.44328 80.704 10.0458 85.2915 14.6341C89.879 19.2216 93.4816 24.565 95.9977 30.5147C98.6033 36.6754 99.9249 43.2186 99.9249 49.9632C99.9249 56.7077 98.6033 63.2509 95.9977 69.4117C93.4808 75.3614 89.879 80.7047 85.2915 85.2923C80.7032 89.8798 75.3606 93.4823 69.411 95.9985C63.2502 98.6041 56.707 99.9256 49.9624 99.9256V99.9249ZM49.9624 18.4666C32.5958 18.4666 18.4666 32.5958 18.4666 49.9624C18.4666 67.3291 32.5958 81.4583 49.9624 81.4583C67.3291 81.4583 81.4583 67.3291 81.4583 49.9624C81.4583 32.5958 67.3291 18.4666 49.9624 18.4666Z" fill="url(#paint0_linear_257_342)"/>
<path d="M49.9624 98.9872C43.3449 98.9872 36.9241 97.6912 30.879 95.1345C25.0413 92.6649 19.7979 89.1307 15.296 84.6281C10.7941 80.1262 7.2592 74.8835 4.78963 69.0451C2.23291 63.0008 0.93689 56.58 0.93689 49.9617C0.93689 43.3434 2.23291 36.9234 4.78963 30.8783C7.2592 25.0406 10.7934 19.7971 15.296 15.2953C19.7979 10.7934 25.0406 7.25845 30.879 4.78888C36.9234 2.23216 43.3441 0.936138 49.9624 0.936138C56.5808 0.936138 63.0007 2.23216 69.0458 4.78888C74.8835 7.25845 80.127 10.7926 84.6288 15.2953C89.1307 19.7971 92.6657 25.0398 95.1352 30.8783C97.692 36.9226 98.988 43.3434 98.988 49.9617C98.988 56.58 97.692 63 95.1352 69.0451C92.6657 74.8828 89.1315 80.1262 84.6288 84.6281C80.127 89.13 74.8843 92.6649 69.0458 95.1345C63.0015 97.6912 56.5808 98.9872 49.9624 98.9872ZM49.9624 17.5289C32.0789 17.5289 17.5289 32.0781 17.5289 49.9624C17.5289 67.8467 32.0781 82.3959 49.9624 82.3959C67.8467 82.3959 82.3959 67.8467 82.3959 49.9624C82.3959 32.0781 67.8467 17.5289 49.9624 17.5289Z" fill="url(#paint1_linear_257_342)"/>
<path d="M17.5898 30.2156L16.151 29.3201L18.3268 25.8242L16.6604 24.7874L14.4846 28.2825L13.2494 27.5139L15.5169 23.87L13.8505 22.8332L10.2359 28.6409L17.9098 33.4162L21.5289 27.6018L20.018 26.3141L17.5898 30.2156Z" fill="white"/>
<path d="M20.5575 15.7543C21.5049 17.5537 22.6905 19.7243 23.5064 20.9489L23.4733 20.9797C22.4177 20.136 20.2352 18.5424 18.6664 17.5019L15.8663 20.0902L22.0015 26.7273L23.7333 25.127L21.7799 23.0135C20.7288 21.876 19.4959 20.6138 18.7198 19.8835L18.7784 19.8295C20.402 21.0669 22.6634 22.6401 24.7776 24.1623L26.3351 22.7228C25.0331 20.3411 23.6582 17.9572 22.6198 16.2772L22.6717 16.2299C23.3719 17.0451 24.5845 18.4027 25.5432 19.4395L27.5447 21.6056L29.414 19.8783L23.2787 13.2412L20.559 15.7551L20.5575 15.7543Z" fill="white"/>
<path d="M31.985 16.4057L31.2059 14.9001L34.8625 13.009L33.9609 11.2652L30.3043 13.157L29.6356 11.8648L33.447 9.89256L32.5455 8.14951L26.4696 11.293L30.6228 19.3201L36.7055 16.1728L36.0661 14.2938L31.985 16.4057Z" fill="white"/>
<path d="M44.3824 12.003C44.0098 10.5184 43.2727 10.0819 42.6724 10.027C43.2179 9.62509 43.7701 8.8287 43.4666 7.61758C43.1352 6.29527 41.8587 5.44102 39.7941 5.95868L35.4508 7.04808L37.6491 15.8144L40.1427 15.1886L39.3118 11.876L40.2171 11.6491C41.3501 11.3651 41.6349 11.7348 41.8249 12.4914L41.882 12.7175C42.1082 13.6183 42.3058 14.2449 42.5485 14.5845L44.9962 13.9707C44.8047 13.6153 44.6101 12.9121 44.4733 12.3666L44.3817 12.0015L44.3824 12.003ZM40.0518 9.78888L38.8633 10.0872L38.3937 8.21337L39.5943 7.9121C40.3794 7.71525 40.8355 7.96469 40.9827 8.55071C41.1307 9.1405 40.9083 9.574 40.0526 9.78888H40.0518Z" fill="white"/>
<path d="M50.2983 6.53644C51.3674 6.55372 51.695 7.16153 51.8167 7.64313L54.4403 7.68595C54.299 6.29452 53.0706 4.71525 50.3411 4.67092C47.3291 4.62209 45.6814 6.61533 45.6364 9.38693C45.5958 11.8941 46.9572 14.009 49.7243 14.0541C50.9797 14.0744 51.8633 13.7543 52.3847 13.0894C52.4072 13.299 52.4726 13.6672 52.5379 13.9151L54.3163 13.9437L54.4004 8.76033L50.1826 8.69196L50.1525 10.544L51.8092 10.571V10.6311C51.7986 11.2276 51.5477 12.2014 50.2134 12.1796C48.7536 12.1555 48.3441 10.7671 48.3674 9.34035C48.3907 7.89482 48.7851 6.5124 50.2968 6.53719L50.2983 6.53644Z" fill="white"/>
<path d="M58.9061 11.2705L62.8933 12.2945L63.3817 10.3929L59.3944 9.3689L59.7558 7.95943L63.9128 9.02705L64.4012 7.12622L57.7754 5.42449L55.5274 14.1788L62.1615 15.8828L62.9354 14.0548L58.4846 12.9121L58.9061 11.2705Z" fill="white"/>
<path d="M72.5056 11.0015L71.5898 12.692C70.9031 13.9594 70.163 15.3742 69.8046 16.2472L69.7656 16.2261C69.9617 15.0661 70.0609 11.9925 70.1946 9.74981L67.408 8.24042L63.1029 16.1871L65.2329 17.3411L66.1998 15.5567C66.9579 14.1578 67.7844 12.6161 68.1149 11.8287L68.1465 11.8452C67.9519 13.0962 67.7738 16.8573 67.6687 18.6604L70.3238 20.0984L74.6288 12.1518L72.5064 11.0023L72.5056 11.0015Z" fill="white"/>
<path d="M77.45 22.5432C77.018 22.8377 76.2787 23.1923 75.5124 22.4703C74.5004 21.5169 75.2044 20.2367 76.1871 19.1931C77.269 18.0443 78.4267 17.456 79.3636 18.3388C80.0759 19.0098 79.9421 19.701 79.5823 20.2592L81.4951 22.0616C82.4388 20.8009 82.6176 18.8475 80.6837 17.0263C78.4237 14.8971 75.8903 15.5252 74.1352 17.3877C72.3366 19.2968 72.0075 21.7318 74.1615 23.7618C75.9669 25.4628 77.834 25.5026 79.3711 24.3546L77.4485 22.5432H77.45Z" fill="white"/>
<path d="M88.1863 26.6597C86.9211 26.8452 85.145 27.0887 84.1164 27.3193C84.7558 26.4065 85.6341 25.0654 86.3892 23.8881L84.7618 21.3779L81.7761 27C81.707 27.145 81.6379 27.1999 81.5387 27.2645L78.9121 28.9677L80.3569 31.1961L82.997 29.4838C83.1503 29.3839 83.2397 29.3734 83.3268 29.3696L89.6897 28.9767L88.1871 26.6597H88.1863Z" fill="white"/>
<path d="M20.3937 80.3591C19.9767 81.0443 20.163 81.6604 20.7971 82.2344C21.3914 82.7724 21.8535 82.8122 22.2051 82.423C22.6041 81.9827 22.4576 81.547 21.6281 80.3358C20.0849 78.0676 20.3441 76.9895 21.1608 76.0872C22.1788 74.9632 23.858 74.7693 25.7228 76.4576C27.6619 78.2134 27.5627 79.9136 26.6995 81.0548L24.8032 79.3373C25.0774 78.9316 25.2239 78.3982 24.5274 77.7678C24.0781 77.3606 23.6484 77.2803 23.3201 77.6431C22.991 78.006 23.1089 78.3697 23.9128 79.5582C25.5109 81.9429 25.2472 83.0579 24.3847 84.0113C23.2449 85.2697 21.4831 85.2652 19.5162 83.4839C17.6634 81.8062 17.4651 80.0526 18.4831 78.6296L20.3937 80.3591Z" fill="white"/>
<path d="M32.2014 87.5725L28.6349 85.5154L27.7881 86.9835L31.7686 89.2795L30.5319 90.8325L24.5988 87.4102L29.1142 79.5808L35.0398 82.9985L34.0594 84.6987L30.3418 82.5545L29.6146 83.8152L33.1811 85.8723L32.2006 87.5725H32.2014Z" fill="white"/>
<path d="M36.5522 89.4515L35.5387 92.7122L33.0834 91.9489L35.7671 83.3186L40.0436 84.6484C42.0759 85.2803 42.7213 86.6739 42.3163 87.976C41.9459 89.1675 41.0594 89.5605 40.3847 89.6198C40.8693 89.979 41.272 90.7355 40.8174 92.1968L40.7055 92.556C40.5387 93.0932 40.3388 93.7941 40.3178 94.1976L37.9076 93.4485C37.8768 93.0316 38.0338 92.3937 38.3103 91.5071L38.3794 91.284C38.6108 90.5387 38.5605 90.0751 37.4448 89.728L36.553 89.4508L36.5522 89.4515ZM37.0999 87.689L38.2697 88.0526C39.1119 88.3148 39.5282 88.0601 39.7085 87.4793C39.8881 86.9023 39.6281 86.4523 38.855 86.2119L37.6732 85.8445L37.0999 87.689Z" fill="white"/>
<path d="M45.4395 94.8542L42.9286 85.6371L45.7363 85.8167L46.6018 89.7626C46.8768 90.988 47.0293 91.8347 47.1698 92.855L47.2096 92.8573C47.4433 91.9354 47.7288 91.1127 48.1811 89.8896L49.5815 86.0624L52.29 86.2352L48.5567 95.0534L45.4388 94.8542H45.4395Z" fill="white"/>
<path d="M55.266 85.6499L56.2502 94.6349L53.6101 94.9241L52.6258 85.9391L55.266 85.6499Z" fill="white"/>
<path d="M66.142 89.1067C66.3614 91.0128 65.3877 92.6063 63.0098 93.3118C60.172 94.1533 58.2329 92.6439 57.4876 90.1292C56.7603 87.6762 57.4914 85.1698 60.4681 84.2878C63.015 83.5327 64.6131 84.6694 65.2284 86.1195L62.7085 86.8663C62.4072 86.2742 61.8768 85.8114 60.9391 86.0894C59.7047 86.4553 59.6311 87.7513 60.0796 89.2645C60.4868 90.6386 61.2397 91.8911 62.5725 91.4959C63.5823 91.1969 63.6469 90.3794 63.6101 89.858L66.1427 89.1074L66.142 89.1067Z" fill="white"/>
<path d="M73.317 84.3719L69.7325 86.3967L70.5657 87.8723L74.5672 85.6123L75.275 87.4666L69.3118 90.8347L64.8678 82.9654L70.8234 79.6018L71.7889 81.3111L68.0526 83.4215L68.7678 84.6882L72.3524 82.6634L73.3178 84.3727L73.317 84.3719Z" fill="white"/>
<path d="M77.3163 82.3516C77.9564 82.8347 78.5875 82.7107 79.2224 82.1375C79.8167 81.6003 79.9031 81.1443 79.5515 80.7551C79.1533 80.314 78.7047 80.4162 77.417 81.1202C75.0053 82.4283 73.9587 82.0624 73.1435 81.16C72.127 80.0346 72.1022 78.3449 73.9684 76.6582C75.9091 74.9046 77.5913 75.1736 78.6409 76.1465L76.7423 77.8618C76.3659 77.5485 75.8497 77.3486 75.1533 77.979C74.7032 78.3854 74.58 78.8047 74.9083 79.1683C75.2367 79.5319 75.6101 79.4508 76.873 78.7701C79.4057 77.4185 80.4883 77.7926 81.3501 78.7461C82.4883 80.006 82.3073 81.7581 80.3381 83.5372C78.4838 85.2126 76.7183 85.2352 75.405 84.0789L77.317 82.3516H77.3163Z" fill="white"/>
<path d="M29.5064 51.8152L29.5988 51.3516C30.0075 49.3817 31.2066 47.5154 34.5875 45.3636C36.6033 44.0804 37.3148 43.5034 37.3148 42.1578C37.3148 41.3817 36.9602 40.6814 35.8663 40.6814C34.6326 40.6814 34.0766 41.4403 33.7588 42.8941H31.1473C31.5109 40.7573 32.7062 38.5117 36.0361 38.5117C39.0518 38.5117 40.0917 40.4185 40.0917 42.133C40.0917 44.3351 39.0473 45.3073 36.7077 46.7648C35.0015 47.8204 33.8587 48.5409 33.278 49.577H39.3794L38.5875 51.8144H29.5071L29.5064 51.8152Z" fill="black"/>
<path d="M45.7025 51.8152L46.3524 48.8054H40.6303L41.1983 46.3509L47.8572 38.7476H51.0301L49.3426 46.6048H50.9429L50.2231 48.8047H48.8993L48.2494 51.8144H45.7032L45.7025 51.8152ZM47.3817 43.9872C47.6454 42.7979 47.885 41.8618 48.1187 41.0669C47.3734 42.2825 44.9414 45.0128 43.6536 46.6056H46.7956L47.3817 43.9872Z" fill="black"/>
<path d="M50.7145 52.4305L58.5973 37.9249H60.8911L53.0053 52.4305H50.7137H50.7145Z" fill="black"/>
<path d="M70.4185 38.7483L69.9602 40.9181C67.1427 43.8377 64.6071 48.1022 63.0924 51.8152H60.1014C61.6206 47.7791 64.873 43.3892 67.1067 41.0053H61.0789L61.5748 38.7483H70.4185Z" fill="black"/>
<path d="M29.7986 57.8445H31.6461L30.8986 61.3539H34.423L35.1705 57.8445H37.018L35.0992 66.8918H33.2517L34.1074 62.87H30.583L29.7273 66.8918H27.8798L29.7986 57.8445Z" fill="#FF0000"/>
<path d="M46.1653 61.4808C46.1653 64.2622 44.6161 67.0233 41.1736 67.0233C38.7686 67.0233 37.6048 65.435 37.6048 63.3802C37.6048 60.6897 39.2487 57.713 42.5259 57.713C45.0218 57.713 46.166 59.3779 46.166 61.4808H46.1653ZM39.5244 63.3088C39.5244 64.6769 40.145 65.5409 41.4155 65.5409C43.4493 65.5409 44.2682 63.3419 44.2682 61.4546C44.2682 60.1307 43.7378 59.1946 42.4147 59.1946C40.4936 59.1946 39.5244 61.3952 39.5244 63.3095V63.3088Z" fill="#FF0000"/>
<path d="M50.583 57.8445L49.3884 63.4252C49.0744 64.8948 49.6732 65.562 50.8445 65.562C52.0992 65.562 52.5732 64.991 52.8858 63.568L54.0917 57.8452H55.9512L54.6995 63.7145C54.2126 65.9076 53.1953 67.021 50.6754 67.021C48.5492 67.021 46.9902 66.0338 47.5642 63.3088L48.7355 57.8452H50.583V57.8445Z" fill="#FF0000"/>
<path d="M58.6694 63.2051L57.8911 66.8918H56.0548L57.9737 57.8445H61.4192C63.145 57.8445 64.175 58.7235 64.175 60.2111C64.175 61.4568 63.4275 62.2787 62.3178 62.574C62.6822 62.7491 63.3839 63.1916 63.0676 64.7295C62.8445 65.7881 62.6957 66.4673 62.7566 66.8911H60.9962C60.9451 66.4974 61.0173 65.8452 61.2569 64.7258C61.4681 63.7363 61.2915 63.2044 60.2975 63.2044H58.6702L58.6694 63.2051ZM58.9752 61.7235H60.4966C61.5522 61.7235 62.29 61.3524 62.29 60.3944C62.29 59.7077 61.9046 59.3261 60.9827 59.3261H59.4831L58.976 61.7235H58.9752Z" fill="#FF0000"/>
<path d="M66.2705 64.112C66.3441 65.024 66.9226 65.5996 68.0714 65.5996C69.0533 65.5996 69.6086 65.2404 69.6086 64.4155C69.6086 63.716 69.1705 63.3434 67.9654 62.9286C66.1232 62.2975 65.4448 61.5582 65.4448 60.4185C65.4448 58.9639 66.4741 57.7137 68.7686 57.7137C70.8655 57.7137 72.012 58.7956 72.0451 60.3854H70.166C70.1255 59.8385 69.882 59.1608 68.6882 59.1608C67.9196 59.1608 67.3516 59.5101 67.3516 60.2134C67.3516 60.7153 67.6401 61.0346 68.8032 61.4403C70.6386 62.0842 71.5515 62.8189 71.5515 64.1833C71.5515 65.6236 70.6777 67.024 67.8866 67.024C65.6258 67.024 64.4388 65.879 64.3877 64.1127H66.2697L66.2705 64.112Z" fill="#FF0000"/>
<path d="M72.0841 54.3028H27.84V55.3328H72.0841V54.3028Z" fill="black"/>
<path d="M35.6387 32.4294L35.1346 32.9303L38.3412 36.1572L38.8454 35.6562L35.6387 32.4294Z" fill="black"/>
<path d="M54.9758 27.3119L53.7846 31.7024L54.4706 31.8885L55.6618 27.498L54.9758 27.3119Z" fill="black"/>
<path d="M44.9888 27.2739L44.3017 27.4558L45.4661 31.8535L46.1531 31.6716L44.9888 27.2739Z" fill="black"/>
<path d="M10.9204 50.985C10.9782 48.6867 11.278 46.4515 11.7926 44.302L14.7949 44.8715L11.5958 35.7168L5.26672 43.0646L7.84147 43.553C7.29001 45.9136 6.96844 48.3651 6.90458 50.8835C6.71976 58.1781 8.71375 65.0218 12.2945 70.7896L17.2352 70.9144C13.1037 65.3629 10.7318 58.4388 10.9204 50.9842V50.985Z" fill="white"/>
<path d="M88.0766 56.45C87.6123 58.7017 86.9211 60.8482 86.0338 62.8723L83.1803 61.7799L84.7055 71.3569L92.2367 65.2472L89.7896 64.3103C90.7506 62.0849 91.5019 59.7288 92.0113 57.2615C93.4861 50.1157 92.737 43.0271 90.2359 36.7153L85.3952 35.7168C88.4778 41.9128 89.5845 49.148 88.0774 56.45H88.0766Z" fill="white"/>
</g>
<defs>
<linearGradient id="paint0_linear_257_342" x1="49.9624" y1="99.9249" x2="49.9624" y2="0" gradientUnits="userSpaceOnUse">
<stop stop-color="#FF5800"/>
<stop offset="1" stop-color="#FF0000"/>
</linearGradient>
<linearGradient id="paint1_linear_257_342" x1="49.9624" y1="99.9256" x2="49.9624" y2="0.00153663" gradientUnits="userSpaceOnUse">
<stop stop-color="#FF0000"/>
<stop offset="1" stop-color="#FF3300"/>
</linearGradient>
<clipPath id="clip0_257_342">
<rect width="99.9249" height="100" fill="white"/>
</clipPath>
</defs>
</svg>
