<svg width="100" height="100" viewBox="0 0 100 100" fill="none" xmlns="http://www.w3.org/2000/svg">
<g clip-path="url(#clip0_257_737)">
<path d="M98.789 60.0606C98.4345 61.7409 95.8765 62.8214 95.3496 64.4345C94.8226 66.0627 96.2575 68.4435 95.5685 69.9931C94.8691 71.5541 92.1395 72.0753 91.2884 73.5472C90.4326 75.0295 91.3406 77.6548 90.3388 79.0281C89.337 80.4109 86.5544 80.354 85.4114 81.6221C84.2731 82.8855 84.6181 85.6463 83.35 86.7846C82.0866 87.9276 79.3779 87.2964 77.9999 88.3038C76.6218 89.3056 76.3868 92.0721 74.9102 92.928C73.4383 93.7791 70.9229 92.6048 69.3572 93.2985C67.8067 93.9923 67.003 96.6498 65.3747 97.1815C63.7617 97.7037 61.5486 96.0234 59.8682 96.3835C58.2135 96.7332 56.8667 99.1652 55.1607 99.3434C53.4803 99.5159 51.6635 97.4175 49.9414 97.4175C48.2193 97.4175 46.3977 99.5159 44.7221 99.3434C43.0104 99.1661 41.6637 96.7332 40.0089 96.3835C38.3285 96.0234 36.1155 97.7037 34.5024 97.1815C32.8741 96.6489 32.0704 93.9876 30.5199 93.2985C28.9542 92.6048 26.4379 93.7791 24.966 92.928C23.4884 92.0721 23.2543 89.3009 21.8763 88.3038C20.4982 87.2964 17.7895 87.9276 16.5262 86.7846C16.3594 86.6329 16.2181 86.451 16.0987 86.2472C15.3263 84.9374 15.4514 82.7139 14.4601 81.6174C13.3218 80.354 10.5401 80.4118 9.53833 79.0281C8.53654 77.6557 9.4445 75.0248 8.58867 73.5472C7.73758 72.0753 5.00803 71.5531 4.30858 69.9931C3.61956 68.4426 5.05542 66.0627 4.52751 64.4345C4.00056 62.8214 1.44255 61.7409 1.08809 60.0606C0.738364 58.4058 2.63863 56.3804 2.46045 54.6687C2.28321 52.9931 0.00195312 51.4018 0.00195312 49.6788C0.00195312 47.9557 2.28321 46.3645 2.46045 44.6841C2.63768 42.9724 0.738364 40.947 1.08809 39.2923C1.4435 37.6119 4.00056 36.5314 4.52751 34.9183C5.05447 33.2901 3.61956 30.9093 4.30858 29.3597C5.00803 27.7988 7.73758 27.2775 8.58867 25.8056C9.4445 24.3233 8.53654 21.698 9.53833 20.3247C10.5458 18.9419 13.3227 18.9988 14.4657 17.7354C15.604 16.4673 15.259 13.7055 16.5271 12.5682C17.7905 11.4252 20.4992 12.0564 21.882 11.049C23.2553 10.0519 23.4894 7.28066 24.9669 6.42484C26.4388 5.57375 28.9551 6.74802 30.5208 6.05426C32.0714 5.36524 32.8751 2.70298 34.5033 2.17128C36.1164 1.64907 38.3294 3.33039 40.0098 2.97024C41.6646 2.62052 43.0114 0.188565 44.723 0.0103856C46.3987 -0.162107 48.2146 1.93624 49.9423 1.93624C51.6701 1.93624 53.4784 -0.162107 55.1598 0.0103856C56.8667 0.187617 58.2135 2.62052 59.8673 2.97498C61.5477 3.33039 63.7607 1.64907 65.3738 2.17128C67.0021 2.70392 67.8114 5.36524 69.3563 6.05426C70.9172 6.75371 73.4222 5.58417 74.8941 6.41441C74.8988 6.4201 74.9045 6.4201 74.9092 6.42484C76.3868 7.28066 76.6209 10.0519 77.9989 11.0547C79.377 12.0564 82.0857 11.4252 83.349 12.5682C84.6171 13.7065 84.2731 16.4673 85.4161 17.7354C86.5534 18.9988 89.336 18.941 90.3378 20.3247C91.3396 21.6971 90.4317 24.3281 91.2875 25.8056C92.1386 27.2775 94.8681 27.7997 95.5676 29.3597C96.2566 30.9103 94.8207 33.2901 95.3486 34.9183C95.8756 36.5314 98.4336 37.6119 98.7938 39.2923C99.1435 40.947 97.2385 42.9724 97.4157 44.6841C97.5929 46.3645 99.8742 47.951 99.8742 49.6788C99.8742 51.4065 97.5939 52.9931 97.4157 54.6687C97.2385 56.3804 99.1435 58.4058 98.7881 60.0606H98.789Z" fill="url(#paint0_linear_257_737)"/>
<path d="M49.9381 27.8443C40.4292 27.8443 32.3515 33.9204 29.3556 42.3981C28.5434 44.6784 28.1064 47.1284 28.1064 49.675C28.1064 52.2217 28.5434 54.6716 29.3556 56.9519C32.3515 65.4297 40.4292 71.5058 49.9381 71.5058C59.447 71.5058 67.5248 65.4297 70.5197 56.9519C71.3329 54.6716 71.7689 52.2217 71.7689 49.675C71.7689 47.1284 71.3329 44.6784 70.5197 42.3981C67.5238 33.9204 59.4461 27.8443 49.9381 27.8443Z" fill="url(#paint1_linear_257_737)"/>
<path d="M47.104 56.4942V40.5491C46.3818 40.531 45.0322 40.4296 44.5811 40.3548V36.5542C46.3107 36.4462 47.8925 35.634 48.8299 34.6132H52.8398V56.4942H47.104Z" fill="white"/>
<path d="M41.4848 64.4232V62.6745C41.4848 62.6139 41.482 62.5608 41.4403 62.4907L39.9258 59.5811H41.355C41.6431 60.2833 41.9862 61.0852 42.1843 61.5827C42.4601 60.9041 42.7634 60.1952 43.0193 59.5811H44.3386L42.8032 62.4755C42.7776 62.5276 42.7605 62.576 42.7605 62.6499V64.4222H41.4848V64.4232Z" fill="white"/>
<path d="M48.7004 62.413H46.657V63.4508H48.9288L48.7847 64.4222H45.4277V59.5811H48.7838V60.5591H46.657V61.4339H48.7004V62.412V62.413Z" fill="white"/>
<path d="M51.5401 63.4204L51.2804 64.4231H50.0312L51.4102 59.582H53.1115L54.5568 64.4231H53.2318L52.9447 63.4204H51.5401ZM52.7286 62.4167C52.5125 61.6434 52.3372 60.9477 52.2338 60.4568H52.2177C52.1163 60.9894 51.94 61.704 51.7467 62.4167H52.7286Z" fill="white"/>
<path d="M57.0345 62.5409V64.4231H55.793V59.582H57.9586C58.9898 59.582 59.5897 60.1175 59.5897 60.9079C59.5897 61.559 59.2589 61.8822 58.8457 62.0471C59.3423 62.2395 59.4959 62.6413 59.4959 63.2053V63.3503C59.4959 63.7597 59.5139 64.1777 59.5537 64.4222H58.332C58.2619 64.2213 58.2382 63.9142 58.2382 63.3446V63.2081C58.2382 62.6982 58.0657 62.5399 57.5321 62.5399H57.0345V62.5409ZM57.0345 61.614H57.6288C58.0335 61.614 58.3368 61.4728 58.3368 61.0406C58.3368 60.6492 58.0676 60.5032 57.7255 60.5032H57.0345V61.614Z" fill="white"/>
<path d="M49.938 20.4479C62.3016 20.4479 73.3752 28.2783 77.4942 39.9339C78.6021 43.0416 79.166 46.3237 79.166 49.676C79.166 53.0282 78.6021 56.3103 77.4894 59.4303C73.3752 71.0726 62.3016 78.903 49.938 78.903C37.5745 78.903 26.5008 71.0726 22.3828 59.417C21.2749 56.3084 20.7109 53.0272 20.7109 49.675C20.7109 46.3228 21.2749 43.0416 22.3875 39.9206C26.5008 28.2783 37.5745 20.4479 49.938 20.4479ZM49.938 69.3629C58.266 69.3629 65.7249 64.0886 68.499 56.2383C69.2477 54.1371 69.6259 51.9326 69.6259 49.675C69.6259 47.4174 69.2477 45.2129 68.5037 43.1241C65.7249 35.2614 58.266 29.9872 49.938 29.9872C41.61 29.9872 34.1511 35.2614 31.378 43.1108C30.6283 45.2139 30.2511 47.4174 30.2511 49.675C30.2511 51.9326 30.6293 54.1361 31.3733 56.2259C34.1511 64.0886 41.61 69.3629 49.938 69.3629Z" fill="url(#paint2_linear_257_737)"/>
<path d="M49.9375 6.99921C26.3676 6.99921 7.26074 26.1061 7.26074 49.676C7.26074 73.2458 26.3676 92.3527 49.9375 92.3527C73.5074 92.3527 92.6142 73.2458 92.6142 49.676C92.6142 26.1061 73.5064 6.99921 49.9375 6.99921ZM70.5608 56.9671C67.5592 65.4619 59.4653 71.5503 49.9375 71.5503C40.4097 71.5503 32.3158 65.4619 29.3142 56.9671C28.5001 54.682 28.0622 52.2273 28.0622 49.675C28.0622 47.1227 28.5001 44.668 29.3142 42.3829C32.3158 33.8881 40.4097 27.7997 49.9375 27.7997C59.4653 27.7997 67.5592 33.8881 70.5608 42.3829C71.3749 44.668 71.8128 47.1227 71.8128 49.675C71.8128 52.2273 71.3759 54.682 70.5608 56.9671Z" fill="url(#paint3_linear_257_737)"/>
<path d="M28.7755 30.5322L30.0029 29.0821L25.7275 23.259L24.5741 24.62C25.2594 25.3991 26.8033 27.3173 27.8183 28.4167L27.8031 28.4367C26.5208 27.6529 24.6225 26.6416 23.4103 25.9857L22.345 27.2387C23.3904 28.5646 24.559 30.1331 25.4906 31.2771L25.4707 31.3017C24.2822 30.4687 22.4132 29.3143 21.2105 28.575L19.9434 30.064L26.3038 33.4314L27.5368 31.987C26.7085 30.9122 25.5996 29.3882 24.7267 28.3333L24.7466 28.3134C25.9304 29.0186 27.4781 29.8071 28.7755 30.5322Z" fill="black"/>
<path d="M31.2267 19.4073L29.1758 20.7778L31.4097 27.74L32.9185 26.7345L32.4257 25.309L34.1221 24.1802L35.2765 25.1612L36.8792 24.0959L31.2286 19.4064L31.2267 19.4073ZM31.8627 23.9338C31.5224 22.9178 31.1576 21.9123 30.8524 21.1825L30.8723 21.173C31.3954 21.681 32.1688 22.3814 33.0521 23.1406L31.8636 23.9348L31.8627 23.9338Z" fill="black"/>
<path d="M42.7454 20.3247L42.6762 20.1276C42.4099 19.3485 42.0061 18.8699 41.2365 18.8405C41.7246 18.4216 42.0251 17.8198 41.7199 16.927C41.3446 15.8371 40.2651 15.3888 38.8501 15.8769L35.877 16.8976L38.1649 23.549L39.8708 22.9623L38.9828 20.3787L39.6633 20.1418C40.3978 19.8906 40.7086 20.0233 40.9503 20.7237L41.0148 20.9114C41.2858 21.6952 41.4583 22.1046 41.6507 22.3463L43.332 21.7691C43.1596 21.4535 42.9378 20.8867 42.7454 20.3247ZM39.3581 18.8254L38.5449 19.1068L38.017 17.5781L38.9686 17.253C39.4367 17.09 39.8756 17.1639 40.0585 17.7013C40.2651 18.2927 39.9154 18.633 39.3581 18.8254Z" fill="black"/>
<path d="M50.3036 19.467L50.2837 19.2547C50.2192 18.4415 49.9529 17.8738 49.2137 17.652C49.7956 17.3658 50.2344 16.8635 50.1605 15.9214C50.0714 14.7727 49.1397 14.0676 47.6508 14.1861L44.5146 14.4325L45.0615 21.4393L46.8613 21.2962L46.6443 18.5742L47.3693 18.5155C48.1389 18.4567 48.4052 18.668 48.464 19.4026L48.4782 19.5997C48.5426 20.428 48.6109 20.8669 48.735 21.1531L50.5055 21.01C50.422 20.665 50.3481 20.0584 50.3036 19.467ZM47.4044 17.164L46.5419 17.2331L46.4187 15.6257L47.4148 15.5471C47.9133 15.5073 48.3171 15.6902 48.3616 16.2569C48.4109 16.8787 47.9863 17.1194 47.4044 17.164Z" fill="black"/>
<path d="M57.6804 17.3468L57.3989 14.876L54.9679 14.442L51.7578 21.0099L52.443 21.1332L53.5424 21.3303L54.1737 19.9646L56.181 20.32L56.3336 21.8288L58.232 22.1691L57.6794 17.3468H57.6804ZM54.7215 18.5799C55.1802 17.6084 55.619 16.6322 55.8995 15.8977L55.9242 15.9025C55.9441 16.5488 56.0028 17.4407 56.0919 18.4415C56.1014 18.5695 56.1166 18.6984 56.127 18.831L54.7215 18.5799Z" fill="black"/>
<path d="M66.3295 18.0766L65.6149 19.5807C65.1363 20.5816 64.6482 21.6667 64.3572 22.4354L64.3326 22.4259C64.3819 22.1103 64.4359 21.2668 64.5894 17.253L62.5479 16.2816L59.5303 22.6325L61.0543 23.3575L61.7746 21.8392C62.3025 20.7294 62.8152 19.6347 63.1403 18.8121L63.1555 18.8216C63.1261 19.0974 63.0768 19.7636 62.8692 24.221L64.8368 25.1526L67.8545 18.8064L66.3305 18.0766H66.3295Z" fill="black"/>
<path d="M70.5846 20.5816L69.6776 21.6763L71.0784 22.8449L67.4883 27.1543L68.9137 28.3428L72.5038 24.0334L73.9037 25.1972L74.8107 24.1025L70.5846 20.5816Z" fill="black"/>
<path d="M79.4504 29.7673C78.5084 29.9938 77.4184 30.2459 76.3882 30.5018C76.7977 29.8459 77.4488 28.756 78.025 27.8149L76.8024 26.1383L74.687 30.4089C74.6377 30.517 74.579 30.5672 74.5041 30.6155L72.4531 32.1149L73.5478 33.6142L75.6291 32.0959C75.7172 32.0315 75.7864 32.0068 75.8708 31.9974L80.5802 31.3169L79.4514 29.7682L79.4504 29.7673Z" fill="black"/>
<path d="M22.2275 71.9114L26.2764 65.9585L27.6175 67.3801C26.7484 68.4957 25.3987 70.2291 24.4387 71.3162L24.4595 71.338C25.7001 70.5371 27.389 69.5477 28.8211 68.6558L29.9471 69.85C29.1614 70.9864 27.9501 72.7634 27.0279 73.9453L27.0488 73.9671C28.2544 73.0771 30.3262 71.755 31.1801 71.156L32.4027 72.4516L26.1465 76.0645L24.8434 74.6826C25.7068 73.4742 26.6564 72.0213 27.4886 70.921L27.4725 70.903C26.3266 71.6498 24.6927 72.589 23.5336 73.2932L22.2294 71.9104L22.2275 71.9114Z" fill="black"/>
<path d="M31.383 78.16L30.3016 79.2073L28.7529 78.2623L34.1258 73.3036L36.2346 74.5907L34.3637 81.6857L32.7203 80.6829L33.124 79.2234L31.383 78.1609V78.16ZM33.6149 77.814C33.9334 76.6928 34.2424 75.6977 34.485 75.0106L34.4651 74.9982C33.9353 75.5811 33.1771 76.3346 32.3971 77.072L33.6149 77.815V77.814Z" fill="black"/>
<path d="M38.4404 80.3181L37.5401 82.8979L35.8379 82.3046L38.1533 75.6664L41.1236 76.7014C42.5367 77.1952 43.1034 78.2159 42.7253 79.3002C42.4144 80.192 41.8059 80.4782 41.1596 80.5057C41.7481 81.008 41.7661 81.6317 41.496 82.406L41.4268 82.606C41.2307 83.167 41.0563 83.7499 40.9937 84.1034L39.3181 83.5196C39.3181 83.2087 39.4327 82.7784 39.7048 81.9965L39.7702 81.8098C40.0137 81.1104 39.8536 80.8118 39.1228 80.5559L38.4404 80.3181ZM38.883 79.0481L39.6981 79.3324C40.2535 79.5257 40.735 79.4764 40.9425 78.8841C41.1302 78.3477 40.8297 78.0197 40.3616 77.8558L39.4147 77.525L38.883 79.0481Z" fill="black"/>
<path d="M45.9208 82.1624L45.6535 84.8815L43.8604 84.7052L44.5475 77.7098L47.6779 78.0178C49.1678 78.1647 49.9592 79.0234 49.8464 80.1654C49.7535 81.1066 49.2304 81.5274 48.6086 81.7055C49.2986 82.0553 49.4626 82.6561 49.383 83.4722L49.3621 83.6826C49.3033 84.274 49.2721 84.8815 49.2939 85.2397L47.5282 85.0663C47.4543 84.7649 47.4647 84.3195 47.5452 83.4959L47.5652 83.2987C47.6372 82.5623 47.4116 82.3093 46.6411 82.2334L45.9217 82.1624H45.9208ZM46.0525 80.8241L46.9112 80.9085C47.496 80.9663 47.9537 80.8052 48.0153 80.1806C48.0713 79.6148 47.7026 79.3665 47.2088 79.3181L46.2108 79.2205L46.0525 80.8251V80.8241Z" fill="black"/>
<path d="M53.1162 83.5471L52.9229 85.0398L51.123 85.2644L52.2376 78.0406L54.6866 77.7344L57.6427 84.4484L55.733 84.6872L55.1397 83.294L53.1162 83.5471ZM54.6468 81.8875C54.1976 80.8118 53.8194 79.8413 53.5815 79.1523L53.5578 79.1551C53.5067 79.9408 53.3816 81.0033 53.2318 82.0648L54.6468 81.8875Z" fill="black"/>
<path d="M59.5127 83.9536L57.0703 77.3591L59.1905 76.5734C61.9646 79.4849 62.5285 80.1123 62.718 80.3682L62.7474 80.3578C62.3948 79.6138 61.9608 78.504 61.5769 77.4662L60.9988 75.9052L62.5834 75.3176L65.0268 81.9122L62.9824 82.6704C59.9335 79.4101 59.4918 78.9106 59.3165 78.6964L59.2994 78.7021C59.6624 79.5096 60.087 80.6422 60.5126 81.7918L61.0974 83.3689L59.5136 83.9555L59.5127 83.9536Z" fill="black"/>
<path d="M66.3154 74.6495L64.8199 75.7015L64.002 74.5395L68.5029 71.373L69.3208 72.536L67.8328 73.5832L71.0609 78.1713L69.5435 79.2385L66.3154 74.6504V74.6495Z" fill="black"/>
<path d="M76.0621 73.6572L74.1448 71.992C74.0784 71.9341 74.0168 71.8868 73.9012 71.8659L69.2676 70.7561L70.6295 69.1885C71.673 69.542 72.8795 69.9306 73.614 70.1865C73.1325 69.2378 72.6435 68.2293 72.2142 67.365L73.4718 65.9168L75.1835 70.359C75.2148 70.4367 75.2527 70.5011 75.3342 70.5713L77.2781 72.2592L76.063 73.6581L76.0621 73.6572Z" fill="black"/>
<path d="M21.6089 39.842L20.2422 39.6733L19.6584 38.4251C19.5788 38.2545 19.3362 38.2545 19.2566 38.4251L18.6727 39.6733L17.3061 39.842C17.1194 39.8647 17.0445 40.096 17.1819 40.2239L18.1884 41.1641L17.9269 42.5166C17.8908 42.7014 18.087 42.8435 18.2519 42.7525L19.4575 42.0863L20.663 42.7525C20.828 42.8435 21.0241 42.7014 20.9881 42.5166L20.7265 41.1641L21.7331 40.2239C21.8705 40.095 21.7956 39.8647 21.6089 39.842Z" fill="black"/>
<path d="M21.6089 58.1148L20.2422 57.9452L19.6584 56.697C19.5788 56.5264 19.3362 56.5264 19.2566 56.697L18.6727 57.9452L17.3061 58.1148C17.1194 58.1376 17.0445 58.3688 17.1819 58.4968L18.1884 59.437L17.9269 60.7894C17.8908 60.9742 18.087 61.1164 18.2519 61.0254L19.4575 60.3591L20.663 61.0254C20.828 61.1164 21.0241 60.9742 20.9881 60.7894L20.7265 59.437L21.7331 58.4968C21.8705 58.3679 21.7956 58.1376 21.6089 58.1148Z" fill="black"/>
<path d="M19.8817 52.9884C20.0466 53.0794 20.2428 52.9372 20.2068 52.7524L19.7907 50.5991L21.3934 49.1016C21.5308 48.9727 21.4559 48.7424 21.2692 48.7197L19.0932 48.4505L18.1644 46.464C18.0847 46.2934 17.8421 46.2934 17.7625 46.464L16.8337 48.4505L14.6576 48.7197C14.4709 48.7424 14.3961 48.9737 14.5335 49.1016L16.1361 50.5991L15.7201 52.7524C15.6841 52.9372 15.8802 53.0794 16.0452 52.9884L17.9644 51.9269L19.8836 52.9884H19.8817Z" fill="black"/>
<path d="M79.1474 41.1651L78.8858 42.5175C78.8498 42.7023 79.046 42.8445 79.2109 42.7535L80.4165 42.0872L81.622 42.7535C81.7869 42.8445 81.9831 42.7023 81.9471 42.5175L81.6855 41.1651L82.6921 40.2249C82.8295 40.096 82.7546 39.8657 82.5679 39.8429L81.2012 39.6742L80.6174 38.426C80.5378 38.2554 80.2952 38.2554 80.2156 38.426L79.6317 39.6742L78.2651 39.8429C78.0783 39.8657 78.0035 40.0969 78.1409 40.2249L79.1474 41.1651Z" fill="black"/>
<path d="M82.5679 58.1148L81.2012 57.9452L80.6174 56.697C80.5378 56.5264 80.2952 56.5264 80.2156 56.697L79.6317 57.9452L78.2651 58.1148C78.0783 58.1376 78.0035 58.3688 78.1409 58.4968L79.1474 59.437L78.8858 60.7894C78.8498 60.9742 79.046 61.1164 79.2109 61.0254L80.4165 60.3591L81.622 61.0254C81.7869 61.1164 81.9831 60.9742 81.9471 60.7894L81.6855 59.437L82.6921 58.4968C82.8295 58.3679 82.7546 58.1376 82.5679 58.1148Z" fill="black"/>
<path d="M85.2175 48.7197L83.0414 48.4505L82.1126 46.464C82.033 46.2934 81.7904 46.2934 81.7107 46.464L80.7819 48.4505L78.6059 48.7197C78.4192 48.7424 78.3443 48.9737 78.4817 49.1016L80.0844 50.5991L79.6683 52.7524C79.6323 52.9372 79.8285 53.0794 79.9934 52.9884L81.9126 51.9269L83.8318 52.9884C83.9967 53.0794 84.1929 52.9372 84.1569 52.7524L83.7408 50.5991L85.3435 49.1016C85.4809 48.9727 85.4061 48.7424 85.2194 48.7197H85.2175Z" fill="black"/>
</g>
<defs>
<linearGradient id="paint0_linear_257_737" x1="42.0683" y1="98.5311" x2="57.5785" y2="2.24236" gradientUnits="userSpaceOnUse">
<stop stop-color="#B37A24"/>
<stop offset="0.1" stop-color="#CB9D40"/>
<stop offset="0.2" stop-color="#DEB857"/>
<stop offset="0.31" stop-color="#ECCC67"/>
<stop offset="0.41" stop-color="#F4D870"/>
<stop offset="0.52" stop-color="#F7DC74"/>
<stop offset="0.62" stop-color="#F0D16A"/>
<stop offset="0.81" stop-color="#E0B54F"/>
<stop offset="1" stop-color="#CC912D"/>
</linearGradient>
<linearGradient id="paint1_linear_257_737" x1="28.1064" y1="49.676" x2="71.7689" y2="49.676" gradientUnits="userSpaceOnUse">
<stop stop-color="#570C0F"/>
<stop offset="0.06" stop-color="#6D0F12"/>
<stop offset="0.16" stop-color="#8C1318"/>
<stop offset="0.27" stop-color="#A6161C"/>
<stop offset="0.39" stop-color="#B9191F"/>
<stop offset="0.52" stop-color="#C71B22"/>
<stop offset="0.7" stop-color="#CF1C23"/>
<stop offset="1" stop-color="#D21D24"/>
</linearGradient>
<linearGradient id="paint2_linear_257_737" x1="49.938" y1="79.1087" x2="49.938" y2="23.7291" gradientUnits="userSpaceOnUse">
<stop stop-color="#FFF6B8"/>
<stop offset="0.09" stop-color="#FFF3A4"/>
<stop offset="0.18" stop-color="#FFF195"/>
<stop offset="0.29" stop-color="#FFF08C"/>
<stop offset="0.47" stop-color="#FFF08A"/>
<stop offset="0.67" stop-color="#EABD54"/>
<stop offset="0.73" stop-color="#D9AC48"/>
<stop offset="0.85" stop-color="#AC802A"/>
<stop offset="1" stop-color="#6E4300"/>
</linearGradient>
<linearGradient id="paint3_linear_257_737" x1="17.435" y1="77.0397" x2="82.5699" y2="22.2023" gradientUnits="userSpaceOnUse">
<stop stop-color="#FFF290"/>
<stop offset="0.21" stop-color="#D8AD4E"/>
<stop offset="0.33" stop-color="#C28527"/>
<stop offset="0.47" stop-color="#D19A37"/>
<stop offset="0.67" stop-color="#EABD54"/>
<stop offset="0.79" stop-color="#EBC057"/>
<stop offset="0.9" stop-color="#EFCB62"/>
<stop offset="1" stop-color="#F7DC74"/>
</linearGradient>
<clipPath id="clip0_257_737">
<rect width="100" height="100" fill="white"/>
</clipPath>
</defs>
</svg>
