<svg width="72" height="29" viewBox="0 0 72 29" fill="none" xmlns="http://www.w3.org/2000/svg">
<g clip-path="url(#clip0_150_1261)">
<path d="M9.03924 23.6057C3.12516 23.6057 0 20.8056 0 15.5087V12.6235H5.76958V15.4453C5.76958 16.9894 6.77357 18.6523 8.97664 18.6523C11.1026 18.6523 12.3715 17.4766 12.3715 15.5087V0H18.3305V15.3827C18.3305 16.5055 18.1234 18.6619 16.7406 20.4894C15.1748 22.5576 12.5841 23.6057 9.03924 23.6057Z" fill="#1D1D1D"/>
<path d="M27.3144 6.46484C31.8995 6.46484 35.9188 8.22326 35.9188 16.3243H25.0536C25.0536 18.8989 26.1211 19.9671 28.0055 19.9671C29.8891 19.9671 30.5175 18.4599 30.5175 18.4599H35.8554C35.8554 20.7833 32.6523 23.9237 27.8168 23.8603C22.2905 23.8603 19.5898 19.7785 19.5898 15.5707C19.5898 11.3629 21.9759 6.46484 27.3144 6.46484ZM30.5801 13.0587C30.5801 11.4889 29.702 9.98166 27.6916 9.98166C25.7439 9.98166 25.0536 11.3629 25.0536 13.0587H30.5801Z" fill="#1D1D1D"/>
<path d="M44.7735 6.46484C49.3585 6.46484 53.3778 8.22326 53.3778 16.3243H42.5126C42.5126 18.8989 43.5801 19.9671 45.4645 19.9671C47.3489 19.9671 47.9766 18.4599 47.9766 18.4599H53.3144C53.3144 20.7833 50.1121 23.9237 45.2759 23.8603C39.7494 23.8603 37.0488 19.7785 37.0488 15.5707C37.0488 11.3629 39.4356 6.46484 44.7735 6.46484ZM48.0392 13.0587C48.0392 11.4889 47.1611 9.98166 45.1507 9.98166C43.2037 9.98166 42.5126 11.3629 42.5126 13.0587H48.0392Z" fill="#1D1D1D"/>
<path d="M54.7529 28.7594V7.09264H60.1541C60.1541 7.09264 60.1541 8.99631 60.1541 9.56212C60.3492 9.14398 60.4865 8.85506 60.9078 8.34864C61.273 7.90884 62.2898 6.65283 64.9904 6.65283C67.6911 6.65283 71.8981 8.53724 71.8981 15.1937C71.8981 20.3437 69.3868 24.1117 65.053 24.1117C62.6662 24.1117 61.5972 23.2811 60.9712 22.7931C60.5724 22.4825 60.4439 22.3389 60.2167 22.0387C60.2167 22.4785 60.2176 28.7594 60.2176 28.7594H54.7529ZM60.0916 15.3823C60.029 18.5853 60.7192 20.2811 63.3572 20.2811C65.9952 20.2811 66.3716 17.3919 66.3716 15.1937C66.3716 12.9963 65.8693 10.8607 63.106 10.8607C61.4102 10.8607 60.1541 12.1793 60.0916 15.3823Z" fill="#1D1D1D"/>
<path fill-rule="evenodd" clip-rule="evenodd" d="M70.3535 28.7905C69.9001 28.7905 69.5092 28.6276 69.1914 28.3066C68.8743 27.9871 68.7139 27.5947 68.7139 27.1396C68.7139 26.6894 68.876 26.2994 69.1954 25.9799C69.5132 25.6621 69.9032 25.5008 70.3535 25.5C70.8061 25.5 71.1986 25.6613 71.518 25.9799C71.8374 26.2977 71.9995 26.6878 71.9995 27.1396C71.9995 27.5931 71.8382 27.9855 71.518 28.3066C71.1986 28.6276 70.807 28.7905 70.3535 28.7905ZM70.3535 25.7769C69.9811 25.7769 69.6577 25.9117 69.3937 26.1774C69.1304 26.4422 68.9972 26.7656 68.9972 27.1396C68.9972 27.5168 69.1296 27.8435 69.3912 28.1091C69.6545 28.3748 69.9779 28.5096 70.3535 28.5096C70.7291 28.5096 71.0534 28.3748 71.3157 28.1091C71.579 27.8435 71.7122 27.5168 71.7122 27.1396C71.7122 26.7656 71.579 26.4422 71.3157 26.1774C71.0517 25.9117 70.7283 25.7769 70.3535 25.7769ZM70.7684 28.0513L70.758 28.0112C70.7564 28.0056 70.7548 27.9984 70.754 27.9903L70.7467 27.931V27.7865C70.7467 27.5931 70.6954 27.4655 70.5935 27.4053C70.5332 27.37 70.4209 27.3523 70.2612 27.3523H70.0445V28.0513H69.6729V26.2199H70.323C70.5453 26.2199 70.7122 26.2416 70.8181 26.2857C71.0124 26.3668 71.1111 26.5265 71.1111 26.7616C71.1111 26.9302 71.0485 27.0554 70.9241 27.1364C70.884 27.1621 70.8359 27.183 70.7773 27.1998C70.8639 27.2319 70.9322 27.2841 70.9803 27.3539C71.0485 27.4526 71.0822 27.5505 71.0822 27.646V27.7761C71.0822 27.8162 71.0838 27.8595 71.0871 27.9061C71.0902 27.9639 71.0967 27.9815 71.0991 27.9871L71.1319 28.0513H70.7684ZM70.2966 27.0754C70.4241 27.0754 70.5204 27.0626 70.5822 27.0377C70.6929 26.9936 70.7467 26.9125 70.7467 26.7881C70.7467 26.6693 70.7122 26.5931 70.6432 26.5538C70.5702 26.5128 70.4482 26.492 70.2813 26.492H70.0445V27.0754H70.2966Z" fill="#1D1D1D"/>
</g>
<defs>
<clipPath id="clip0_150_1261">
<rect width="72" height="28.7904" fill="white"/>
</clipPath>
</defs>
</svg>
