<svg width="48" height="48" viewBox="0 0 48 48" fill="none" xmlns="http://www.w3.org/2000/svg">
<g clip-path="url(#clip0_150_1248)">
<path d="M22.9086 0.577522C35.8682 -0.291335 47.0691 9.50686 47.938 22.4664C48.8068 35.426 39.0086 46.627 26.0491 47.4958C13.0895 48.3647 1.88854 38.5665 1.01968 25.6069C0.422998 16.6147 5.00805 8.08319 12.8278 3.61329C15.9159 1.85464 19.3704 0.81829 22.9086 0.577522ZM23.6204 2.57694C11.7705 3.03754 2.53757 13.0242 2.99816 24.8846C3.45876 36.7345 13.4454 45.9675 25.3058 45.5069C37.1558 45.0463 46.3887 35.0596 45.9281 23.1992C45.6454 15.9762 41.7513 9.38124 35.5541 5.64411C31.9636 3.4772 27.8182 2.40945 23.6204 2.57694Z" fill="#0E3A2F"/>
<path d="M18.4278 6.35609C20.7203 5.59191 23.1384 5.2674 25.5566 5.39302C25.8078 5.38255 26.059 5.42442 26.2998 5.51864C28.9483 7.62274 31.0419 10.3445 32.4028 13.443C33.8788 17.0127 34.4231 20.9068 33.9834 24.7486C33.7113 27.5436 33.0413 30.2863 31.9945 32.8929H33.8683C34.0567 32.4113 34.2137 31.9298 34.4126 31.4587C36.611 31.7414 38.6418 32.7463 40.1911 34.327C38.6522 35.9182 36.611 36.9336 34.4126 37.1953C34.2347 36.7242 34.0567 36.2636 33.8892 35.7926H16.554C16.2609 35.8135 15.9887 35.9182 15.7479 36.0857C15.1094 36.3997 14.4813 36.7347 13.8532 37.0592C13.6229 37.1639 13.3612 37.2162 13.1099 37.1953H10.8698C9.29953 35.5204 8.02241 33.5838 7.10122 31.4797H12.1992C12.5656 31.4378 12.932 31.4797 13.2774 31.5948C14.1253 31.9612 14.9733 32.3276 15.8212 32.7044C16.4597 33.0813 17.2239 32.8615 17.9358 32.9138C17.8311 31.1028 17.3077 29.3442 16.4074 27.7635C15.4548 26.2456 14.1253 24.9894 12.5447 24.131C10.4301 22.99 8.14803 22.2049 5.78223 21.7757C6.09627 19.2738 6.91279 16.8661 8.1899 14.6992C9.85434 15.0761 11.4874 15.5681 13.089 16.1648C14.8058 16.7719 16.4283 17.6198 17.9148 18.6666L18.3964 18.4363C17.4333 17.3686 16.3551 16.4055 15.1722 15.5785C13.4973 14.3538 11.7386 13.2441 9.90668 12.2392C11.435 10.3654 13.3193 8.80564 15.4443 7.65414C16.8994 8.25083 18.2603 9.05688 19.485 10.0409C21.3484 11.5274 23.0756 13.1813 24.6458 14.9714L25.2635 14.8039C23.7037 11.5064 21.1914 8.73236 18.4278 6.35609ZM26.9698 26.1828C25.7345 26.5701 25.0541 27.8786 25.4414 29.1139C25.8287 30.3491 27.1373 31.0295 28.3725 30.6422C29.5973 30.2549 30.2882 28.9464 29.9009 27.7111C29.7543 27.2505 29.4612 26.8423 29.0739 26.5492C28.4667 26.099 27.6816 25.963 26.9698 26.1828Z" fill="#0E3A2F"/>
</g>
<defs>
<clipPath id="clip0_150_1248">
<rect width="48" height="48" fill="white"/>
</clipPath>
</defs>
</svg>
