<svg width="24" height="24" viewBox="0 0 24 24" fill="none" xmlns="http://www.w3.org/2000/svg">
<path d="M20.665 8.21523C20.6904 8.02594 20.7031 7.83701 20.7031 7.64844C20.7031 5.06035 18.3718 2.98356 15.7848 3.33495C15.0309 1.99358 13.5948 1.12109 12 1.12109C10.4052 1.12109 8.96914 1.99358 8.21523 3.33495C5.62279 2.98356 3.29688 5.06035 3.29688 7.64844C3.29688 7.83701 3.30957 8.02594 3.33495 8.21523C1.99358 8.97022 1.12109 10.4062 1.12109 12C1.12109 13.5938 1.99358 15.0298 3.33495 15.7848C3.30993 15.9727 3.29721 16.162 3.29688 16.3516C3.29688 18.9397 5.62279 21.011 8.21523 20.665C8.96914 22.0064 10.4052 22.8789 12 22.8789C13.5948 22.8789 15.0309 22.0064 15.7848 20.665C18.3718 21.011 20.7031 18.9397 20.7031 16.3516C20.7031 16.163 20.6904 15.9741 20.665 15.7848C22.0064 15.0298 22.8789 13.5938 22.8789 12C22.8789 10.4062 22.0064 8.97022 20.665 8.21523ZM10.8632 16.8041L6.87386 12.7637L8.42302 11.2363L10.8784 13.7232L15.5857 9.05182L17.1174 10.5966L10.8632 16.8041Z" fill="#42D72E"/>
</svg>
