<svg width="48" height="48" viewBox="0 0 48 48" fill="none" xmlns="http://www.w3.org/2000/svg">
<g clip-path="url(#clip0_150_1244)">
<path d="M23.9956 45.7632C12.0772 45.7632 2.29481 35.9184 2.29481 24C2.29481 21.3216 2.76521 18.7728 3.66761 16.3968L16.3684 41.9424C16.5316 42.2832 16.738 42.552 17.1316 42.552C17.5396 42.552 17.7556 42.2736 17.9044 41.9424L23.7268 28.848C23.7892 28.7232 23.866 28.5792 23.9956 28.5792C24.1348 28.5792 24.1972 28.7184 24.2644 28.848L30.0964 41.9424C30.2356 42.2736 30.466 42.552 30.8596 42.552C31.2676 42.552 31.4692 42.2832 31.6324 41.9424L44.3236 16.3968C45.2356 18.768 45.706 21.3216 45.706 24C45.706 35.9184 35.9236 45.7632 23.9956 45.7632ZM23.9956 19.0752C23.8708 19.0752 23.794 18.936 23.7268 18.8064L16.9012 3.46561C19.1092 2.65441 21.5188 2.22241 23.9956 2.22241C26.482 2.22241 28.8916 2.65441 31.0996 3.46561L24.2596 18.8112C24.1972 18.936 24.1348 19.0752 23.9956 19.0752ZM17.0644 34.8144C16.9252 34.8144 16.8628 34.6896 16.7956 34.5456L5.74121 12.2736C7.71881 9.25441 10.3588 6.71521 13.546 4.93921L21.4756 22.6272C21.6148 22.9584 21.8164 23.0208 22.0852 23.0208H25.906C26.1748 23.0208 26.3764 22.9584 26.5012 22.6272L34.4452 4.93921C37.618 6.71521 40.2676 9.25441 42.25 12.2736L31.2004 34.5456C31.1236 34.6848 31.0612 34.8144 30.9316 34.8144C30.7924 34.8144 30.73 34.6896 30.6532 34.5456L26.506 25.0416C26.3812 24.7008 26.1748 24.6336 25.9108 24.6336H22.09C21.8212 24.6336 21.6196 24.696 21.4804 25.0416L17.3332 34.5456C17.2708 34.6848 17.194 34.8144 17.0644 34.8144ZM23.9956 47.9712C37.258 47.9712 47.9812 37.2624 47.9812 24C47.9812 10.7376 37.2532 0.0288086 23.9956 0.0288086C10.7332 0.0288086 0.0244141 10.7376 0.0244141 24C0.0244141 37.2624 10.7332 47.9712 23.9956 47.9712Z" fill="#0F2F5A"/>
</g>
<defs>
<clipPath id="clip0_150_1244">
<rect width="48" height="48" fill="white"/>
</clipPath>
</defs>
</svg>
