<svg width="24" height="24" viewBox="0 0 24 24" fill="none" xmlns="http://www.w3.org/2000/svg">
<g clip-path="url(#clip0_289_14)">
<path fill-rule="evenodd" clip-rule="evenodd" d="M12 0.745117C5.78393 0.745117 0.745117 5.78393 0.745117 12C0.745117 14.1272 1.336 16.1193 2.36357 17.8165L1.35963 21.229C1.30199 21.4249 1.2982 21.6328 1.34865 21.8307C1.39911 22.0286 1.50195 22.2092 1.64636 22.3536C1.79078 22.4981 1.97143 22.6009 2.16933 22.6513C2.36723 22.7018 2.57507 22.698 2.771 22.6404L6.18348 21.6364C7.93782 22.6977 9.94963 23.2575 12 23.2549C18.2161 23.2549 23.2549 18.2161 23.2549 12C23.2549 5.78393 18.2161 0.745117 12 0.745117ZM9.45415 14.547C11.731 16.8227 13.9043 17.1232 14.6719 17.1514C15.839 17.1941 16.9758 16.3027 17.4181 15.2684C17.4735 15.1396 17.4935 14.9984 17.4761 14.8594C17.4587 14.7203 17.4045 14.5883 17.3191 14.4772C16.7023 13.6894 15.8683 13.1232 15.0534 12.5605C14.8834 12.4426 14.6743 12.3952 14.47 12.4284C14.2658 12.4616 14.0823 12.5727 13.9583 12.7383L13.2831 13.7681C13.2474 13.8233 13.1921 13.8628 13.1283 13.8787C13.0646 13.8946 12.9972 13.8856 12.9398 13.8537C12.4817 13.5914 11.8143 13.1457 11.3348 12.6663C10.8554 12.1868 10.4367 11.5498 10.2015 11.121C10.173 11.0664 10.165 11.0034 10.1788 10.9433C10.1926 10.8833 10.2274 10.8302 10.2769 10.7935L11.3168 10.0214C11.4657 9.89263 11.5618 9.71347 11.5867 9.51824C11.6116 9.32302 11.5636 9.12546 11.4519 8.96343C10.9477 8.22511 10.3602 7.28645 9.50817 6.66406C9.39798 6.58489 9.26921 6.53552 9.13434 6.52073C8.99947 6.50594 8.86306 6.52624 8.73834 6.57965C7.70289 7.02309 6.807 8.15983 6.84977 9.32922C6.8779 10.0968 7.17841 12.2701 9.45415 14.547Z" fill="#42D72E"/>
</g>
<defs>
<clipPath id="clip0_289_14">
<rect width="24" height="24" fill="white"/>
</clipPath>
</defs>
</svg>
